<?xml version="1.0" encoding="UTF-8"?>
<!DOCTYPE svg PUBLIC "-//W3C//DTD SVG 1.1//EN" "http://www.w3.org/Graphics/SVG/1.1/DTD/svg11.dtd">
<svg xmlns="http://www.w3.org/2000/svg" version="1.1" width="592px" height="498px" style="shape-rendering:geometricPrecision; text-rendering:geometricPrecision; image-rendering:optimizeQuality; fill-rule:evenodd; clip-rule:evenodd" xmlns:xlink="http://www.w3.org/1999/xlink">
<g><path style="opacity:0.992" fill="#4f00f4" d="M 172.5,252.5 C 158.667,260.65 145.333,269.65 132.5,279.5C 111.201,258.702 90.0347,237.702 69,216.5C 68.3333,215.833 68.3333,215.167 69,214.5C 142.723,161.778 216.723,109.445 291,57.5C 291.667,94.1667 291.667,130.833 291,167.5C 251.319,195.696 211.819,224.03 172.5,252.5 Z"/></g>
<g><path style="opacity:0.995" fill="#a900ce" d="M 450.5,227.5 C 449.448,227.351 448.448,227.517 447.5,228C 435.457,237.013 423.123,245.513 410.5,253.5C 410.167,231.823 410.5,210.156 411.5,188.5C 424.854,201.188 437.854,214.188 450.5,227.5 Z"/></g>
<g><path style="opacity:0.986" fill="#e500fe" d="M 450.5,227.5 C 471.465,247.965 492.299,268.632 513,289.5C 513.667,290.167 513.667,290.833 513,291.5C 439.833,343.333 366.667,395.167 293.5,447C 292.552,447.483 291.552,447.649 290.5,447.5C 290.167,410.827 290.5,374.161 291.5,337.5C 319.82,317.831 347.82,297.831 375.5,277.5C 376.492,277.672 377.158,277.338 377.5,276.5C 388.675,269.08 399.675,261.413 410.5,253.5C 423.123,245.513 435.457,237.013 447.5,228C 448.448,227.517 449.448,227.351 450.5,227.5 Z"/></g>
<g><path style="opacity:0.949" fill="#d1d5db" d="M 228.5,233.5 C 233.179,233.334 237.845,233.501 242.5,234C 237.079,242.176 231.412,250.176 225.5,258C 227.81,258.497 230.143,258.663 232.5,258.5C 232.5,256.167 232.5,253.833 232.5,251.5C 236.5,251.5 240.5,251.5 244.5,251.5C 244.5,253.833 244.5,256.167 244.5,258.5C 246.833,258.5 249.167,258.5 251.5,258.5C 251.5,262.167 251.5,265.833 251.5,269.5C 249.167,269.5 246.833,269.5 244.5,269.5C 244.5,272.167 244.5,274.833 244.5,277.5C 240.167,277.5 235.833,277.5 231.5,277.5C 231.5,274.833 231.5,272.167 231.5,269.5C 223.833,269.5 216.167,269.5 208.5,269.5C 208.335,266.482 208.502,263.482 209,260.5C 215.509,251.471 222.009,242.471 228.5,233.5 Z"/></g>
<g><path style="opacity:0.961" fill="#d1d5db" d="M 254.5,233.5 C 258.514,233.334 262.514,233.501 266.5,234C 272.333,241.167 278.167,248.333 284,255.5C 284.5,248.174 284.666,240.841 284.5,233.5C 288.833,233.5 293.167,233.5 297.5,233.5C 297.5,248.167 297.5,262.833 297.5,277.5C 293.486,277.666 289.486,277.499 285.5,277C 279.548,270.26 273.715,263.426 268,256.5C 267.5,263.492 267.334,270.492 267.5,277.5C 263.167,277.5 258.833,277.5 254.5,277.5C 254.5,262.833 254.5,248.167 254.5,233.5 Z"/></g>
<g><path style="opacity:0.948" fill="#d1d5db" d="M 377.5,276.5 C 377.158,277.338 376.492,277.672 375.5,277.5C 371.154,277.666 366.821,277.499 362.5,277C 360.994,274.667 359.327,272.5 357.5,270.5C 355.673,272.5 354.006,274.667 352.5,277C 347.5,277.667 342.5,277.667 337.5,277C 342.073,271.85 346.406,266.517 350.5,261C 346.5,255.667 342.5,250.333 338.5,245C 334.848,244.501 331.182,244.335 327.5,244.5C 327.5,255.5 327.5,266.5 327.5,277.5C 323.167,277.5 318.833,277.5 314.5,277.5C 314.5,266.5 314.5,255.5 314.5,244.5C 309.833,244.5 305.167,244.5 300.5,244.5C 300.5,240.833 300.5,237.167 300.5,233.5C 313.833,233.5 327.167,233.5 340.5,233.5C 340.5,236.833 340.5,240.167 340.5,243.5C 344.514,243.334 348.514,243.501 352.5,244C 354.333,246.5 356.167,249 358,251.5C 359.833,249 361.667,246.5 363.5,244C 368.167,243.333 372.833,243.333 377.5,244C 373.486,249.344 369.486,254.677 365.5,260C 368.962,265.951 372.962,271.451 377.5,276.5 Z"/></g>
<g><path style="opacity:0.984" fill="#3601b0" d="M 172.5,252.5 C 172.833,274.51 172.5,296.51 171.5,318.5C 158.146,305.812 145.146,292.812 132.5,279.5C 145.333,269.65 158.667,260.65 172.5,252.5 Z"/></g>
</svg>
