<?xml version="1.0" encoding="UTF-8"?>
<svg version="1.1" xmlns="http://www.w3.org/2000/svg" width="1280" height="721">
<path d="M0 0 C6.93 0 13.86 0 21 0 C21 0.99 21 1.98 21 3 C21.66 3 22.32 3 23 3 C23.33 3.66 23.66 4.32 24 5 C24.99 5 25.98 5 27 5 C27 5.66 27 6.32 27 7 C27.99 7 28.98 7 30 7 C29.67 7.66 29.34 8.32 29 9 C29.33 9.33 29.66 9.66 30 10 C30 10.66 30 11.32 30 12 C31.32 12 32.64 12 34 12 C33.98 12.8 33.96 13.61 33.94 14.44 C33.7 16.93 33.7 16.93 35 18 C35.07 20.53 35.09 23.03 35.06 25.56 C35.06 26.27 35.05 26.98 35.05 27.72 C35.04 29.48 35.02 31.24 35 33 C34.01 33.33 33.02 33.66 32 34 C32.03 34.63 32.07 35.25 32.11 35.9 C32.13 36.72 32.16 37.53 32.19 38.38 C32.22 39.19 32.26 40 32.29 40.84 C32.2 41.55 32.1 42.26 32 43 C31.01 43.66 30.02 44.32 29 45 C28.28 46.98 27.62 48.99 27 51 C26.02 53.01 25.02 55.01 24 57 C22.54 60.32 21.61 63.43 21 67 C20.34 67 19.68 67 19 67 C18.73 68.01 18.46 69.02 18.19 70.06 C17.11 73.87 15.62 77.39 14 81 C13.34 81 12.68 81 12 81 C12 82.65 12 84.3 12 86 C11.01 86.33 10.02 86.66 9 87 C8.93 87.94 8.93 87.94 8.85 88.9 C8.78 89.72 8.7 90.53 8.62 91.38 C8.56 92.19 8.49 93 8.41 93.84 C8 96 8 96 6 98 C5.29 99.98 4.61 101.98 4 104 C3.34 104 2.68 104 2 104 C2 105.65 2 107.3 2 109 C1.01 109.33 0.02 109.66 -1 110 C-1.07 111.05 -1.07 111.05 -1.15 112.12 C-1.22 113.03 -1.3 113.94 -1.38 114.88 C-1.44 115.78 -1.51 116.68 -1.59 117.62 C-2 120 -2 120 -4 122 C-4.71 123.65 -5.38 125.32 -6 127 C-6.66 127 -7.32 127 -8 127 C-8 128.98 -8 130.96 -8 133 C-8.99 133.33 -9.98 133.66 -11 134 C-11.05 134.63 -11.1 135.25 -11.15 135.9 C-11.22 136.72 -11.3 137.53 -11.38 138.38 C-11.44 139.19 -11.51 140 -11.59 140.84 C-12 143 -12 143 -14 145 C-14.71 146.65 -15.38 148.32 -16 150 C-16.66 150 -17.32 150 -18 150 C-18 151.98 -18 153.96 -18 156 C-18.99 156.33 -19.98 156.66 -21 157 C-21.05 157.63 -21.1 158.25 -21.15 158.9 C-21.22 159.72 -21.3 160.53 -21.38 161.38 C-21.44 162.19 -21.51 163 -21.59 163.84 C-22 166 -22 166 -24 168 C-24.68 170 -25.34 172 -26 174 C-26.97 176.01 -27.96 178.02 -29 180 C-29.66 180 -30.32 180 -31 180 C-31 182.97 -31 185.94 -31 189 C-31.99 189.33 -32.98 189.66 -34 190 C-35.14 193.26 -35.14 193.26 -36 197 C-37.63 202.66 -37.63 202.66 -39.62 204.5 C-41.34 206.03 -41.34 206.03 -41 209 C-41 212 -41 212 -42.38 213.56 C-42.91 214.04 -43.45 214.51 -44 215 C-44.73 216.64 -45.39 218.31 -46 220 C-46.53 221.27 -47.08 222.54 -47.62 223.81 C-48.31 225.39 -48.31 225.39 -49 227 C-49.66 227 -50.32 227 -51 227 C-50.97 227.63 -50.93 228.25 -50.89 228.9 C-50.87 229.72 -50.84 230.53 -50.81 231.38 C-50.76 232.59 -50.76 232.59 -50.71 233.84 C-50.8 234.55 -50.9 235.26 -51 236 C-51.99 236.66 -52.98 237.32 -54 238 C-54.73 240.56 -54.73 240.56 -55 243 C-55.66 243 -56.32 243 -57 243 C-57.66 245.31 -58.32 247.62 -59 250 C-59.66 250 -60.32 250 -61 250 C-60.94 250.95 -60.88 251.9 -60.81 252.88 C-60.91 254.42 -60.91 254.42 -61 256 C-61.99 256.66 -62.98 257.32 -64 258 C-64.5 259.9 -64.5 259.9 -64.56 262 C-64.79 265.79 -64.79 265.79 -67 268 C-67.71 269.65 -68.38 271.32 -69 273 C-69.66 273 -70.32 273 -71 273 C-70.94 273.95 -70.88 274.9 -70.81 275.88 C-70.91 277.42 -70.91 277.42 -71 279 C-71.99 279.66 -72.98 280.32 -74 281 C-74.5 282.9 -74.5 282.9 -74.56 285 C-74.79 288.79 -74.79 288.79 -77 291 C-77.13 291.79 -77.25 292.58 -77.38 293.4 C-78.15 296.65 -79.3 297.56 -81.88 299.62 C-84.83 302.01 -84.83 302.01 -87.54 304.68 C-89.93 306.84 -92.89 306.6 -96 307 C-96.66 307.66 -97.32 308.32 -98 309 C-100.69 309.27 -103.29 309.09 -106 309 C-106.33 308.01 -106.66 307.02 -107 306 C-107.89 306.12 -108.77 306.25 -109.69 306.38 C-113 306 -113 306 -114.41 304.66 C-114.83 304.11 -115.25 303.57 -115.69 303 C-116.83 301.51 -116.83 301.51 -118 300 C-118.99 300 -119.98 300 -121 300 C-121.1 299.4 -121.21 298.8 -121.31 298.19 C-121.82 295.95 -121.82 295.95 -123.43 294.66 C-126.41 291.5 -127.16 287.17 -128 283 C-127.81 279.81 -127.81 279.81 -127 277 C-126.69 275.8 -126.38 274.61 -126.06 273.38 C-125.22 270.71 -124.36 268.42 -123 266 C-122.34 266 -121.68 266 -121 266 C-121 264.02 -121 262.04 -121 260 C-120.34 259.67 -119.68 259.34 -119 259 C-118.31 256.88 -118.31 256.88 -117.88 254.44 C-117.62 253.2 -117.62 253.2 -117.37 251.93 C-117.19 250.98 -117.19 250.98 -117 250 C-116.34 250 -115.68 250 -115 250 C-114.73 248.99 -114.46 247.98 -114.19 246.94 C-113.11 243.13 -111.62 239.61 -110 236 C-109.34 236 -108.68 236 -108 236 C-108.02 234.89 -108.04 233.77 -108.06 232.62 C-108 229 -108 229 -107 227 C-106.34 227 -105.68 227 -105 227 C-105.06 226.24 -105.12 225.47 -105.19 224.69 C-104.96 221.42 -104.27 221.18 -102 219 C-100.8 215.9 -100.8 215.9 -100 213 C-99.34 213 -98.68 213 -98 213 C-98.02 211.89 -98.04 210.77 -98.06 209.62 C-98 206 -98 206 -97 204 C-96.34 204 -95.68 204 -95 204 C-94.88 202.87 -94.75 201.73 -94.62 200.56 C-94.42 199.39 -94.21 198.21 -94 197 C-93.34 196.67 -92.68 196.34 -92 196 C-91.27 194.02 -90.6 192.02 -90 190 C-89.34 190 -88.68 190 -88 190 C-88.06 188.78 -88.12 187.57 -88.19 186.31 C-88.19 182.36 -87.37 180.24 -85 177 C-82.96 173.74 -81.39 170.58 -80 167 C-79.67 166.67 -79.34 166.34 -79 166 C-78.61 164.49 -78.26 162.97 -77.94 161.44 C-77.76 160.61 -77.58 159.78 -77.4 158.93 C-77.27 158.3 -77.14 157.66 -77 157 C-76.34 157 -75.68 157 -75 157 C-75.06 156.24 -75.12 155.47 -75.19 154.69 C-74.96 151.42 -74.27 151.18 -72 149 C-70.8 145.9 -70.8 145.9 -70 143 C-69.34 143 -68.68 143 -68 143 C-68.02 141.89 -68.04 140.77 -68.06 139.62 C-68 136 -68 136 -67 134 C-66.34 134 -65.68 134 -65 134 C-64.88 132.87 -64.75 131.73 -64.62 130.56 C-64.42 129.39 -64.21 128.21 -64 127 C-63.34 126.67 -62.68 126.34 -62 126 C-61.27 124.02 -60.6 122.02 -60 120 C-59.34 120 -58.68 120 -58 120 C-58 118.02 -58 116.04 -58 114 C-57.01 113.67 -56.02 113.34 -55 113 C-55.06 111.91 -55.12 110.81 -55.19 109.69 C-55 106 -55 106 -53.62 104.44 C-53.09 103.96 -52.55 103.49 -52 103 C-51.28 101.02 -50.62 99.01 -50 97 C-49.04 94.65 -48.02 92.33 -47 90 C-46.34 90 -45.68 90 -45 90 C-45.02 88.89 -45.04 87.77 -45.06 86.62 C-45 83 -45 83 -44 81 C-43.34 81 -42.68 81 -42 81 C-41.73 79.99 -41.46 78.98 -41.19 77.94 C-40.11 74.13 -38.62 70.61 -37 67 C-36.34 67 -35.68 67 -35 67 C-35.06 65.74 -35.12 64.48 -35.19 63.19 C-35.19 59.23 -35.19 59.23 -33.62 57.38 C-33.09 56.92 -32.55 56.47 -32 56 C-30.8 52.9 -30.8 52.9 -30 50 C-29.34 50 -28.68 50 -28 50 C-28.04 49.22 -28.08 48.43 -28.12 47.62 C-28 45 -28 45 -26 43 C-25.39 40.68 -24.99 38.36 -24.56 36 C-24.38 35.34 -24.19 34.68 -24 34 C-23.34 33.67 -22.68 33.34 -22 33 C-21.27 31.02 -20.6 29.02 -20 27 C-19.34 27 -18.68 27 -18 27 C-18.04 26.22 -18.08 25.43 -18.12 24.62 C-18 22 -18 22 -16 20 C-15.29 18.02 -14.61 16.02 -14 14 C-13.34 14 -12.68 14 -12 14 C-11.77 12.93 -11.55 11.85 -11.31 10.75 C-9.85 6.58 -8.75 5.23 -5 3 C-3.68 3 -2.36 3 -1 3 C-0.67 2.01 -0.34 1.02 0 0 Z " fill="#1661E5" transform="translate(333,195)"/>
<path d="M0 0 C1.02 -0.02 1.02 -0.02 2.05 -0.04 C5.76 -0.05 7.33 0.07 10.5 2.19 C10.83 2.52 11.16 2.85 11.5 3.19 C12.12 3.46 12.74 3.72 13.38 4 C15.5 5.19 15.5 5.19 16.81 7.19 C18.47 9.54 18.47 9.54 22 10.12 C26.28 11.43 26.4 12.42 28.5 16.19 C32.52 19.83 32.52 19.83 37.5 21.19 C37.54 21.79 37.58 22.38 37.62 23 C38.96 26.33 41.3 26.81 44.5 28.19 C45.24 28.5 45.99 28.81 46.75 29.12 C48.96 30.46 49.56 31.83 50.5 34.19 C51.49 34.19 52.48 34.19 53.5 34.19 C55.69 36.06 55.69 36.06 57.5 38.19 C57.5 38.85 57.5 39.51 57.5 40.19 C58.06 40.25 58.61 40.31 59.19 40.38 C62.53 41.55 64.22 43.53 66.5 46.19 C66.87 47.51 67.21 48.84 67.5 50.19 C68.49 50.52 69.48 50.85 70.5 51.19 C70.17 52.51 69.84 53.83 69.5 55.19 C70.49 55.52 71.48 55.85 72.5 56.19 C72.66 58.9 72.78 61.6 72.88 64.31 C72.93 65.07 72.98 65.83 73.03 66.62 C73.17 72.27 73.17 72.27 71.18 74.99 C69.55 76.57 69.55 76.57 67.92 77.92 C65.92 79.7 65.31 81.68 64.5 84.19 C63.84 85.18 63.18 86.17 62.5 87.19 C59.38 87.38 59.38 87.38 56.5 87.19 C56.26 87.75 56.01 88.32 55.76 88.9 C51.85 95.99 45.76 100.15 38.5 103.19 C33.32 107.63 33.32 107.63 29.5 113.19 C28.6 113.44 27.71 113.7 26.78 113.96 C22.25 115.65 19.76 118.76 16.64 122.29 C13.33 125.85 11.2 126.49 6.5 127.19 C5.39 128.93 5.39 128.93 4.5 131.19 C2.62 133.3 0.74 135.31 -1.25 137.31 C-1.76 137.85 -2.28 138.39 -2.8 138.94 C-6.21 142.37 -8.83 143.72 -13.5 145.19 C-16.07 147.24 -16.07 147.24 -18.31 149.69 C-19.08 150.48 -19.85 151.28 -20.64 152.09 C-22.54 154.05 -22.54 154.05 -23.5 156.19 C-24.83 156.56 -24.83 156.56 -26.18 156.93 C-30.43 158.54 -32.56 160.94 -35.56 164.25 C-39.01 168.05 -41.3 170.38 -46.5 171.19 C-48.45 172.87 -48.45 172.87 -50.06 175 C-50.66 175.72 -51.26 176.44 -51.88 177.19 C-52.68 178.18 -52.68 178.18 -53.5 179.19 C-55.94 182.01 -57.23 183.08 -60.75 184.44 C-65.98 186.46 -70.99 191.17 -73.5 196.19 C-74.37 196.42 -75.24 196.66 -76.14 196.91 C-80.59 198.6 -83.07 201.28 -86.31 204.69 C-86.9 205.28 -87.48 205.88 -88.08 206.49 C-91.17 209.56 -91.17 209.56 -93.5 213.19 C-94.35 213.39 -95.19 213.6 -96.06 213.81 C-99.86 215.33 -100.26 216.16 -102.56 219.31 C-105.67 222.67 -108.08 223.46 -112.51 223.78 C-127.84 224.12 -127.84 224.12 -133.5 221.19 C-133 220.2 -133 220.2 -132.5 219.19 C-133.2 218.49 -133.9 217.78 -134.62 217.06 C-135.08 216.6 -135.53 216.13 -136 215.65 C-137.46 214.17 -137.46 214.17 -139.07 212.95 C-141.62 210.82 -143.26 209.19 -144.05 205.91 C-144.23 203.29 -144.22 200.75 -144.12 198.12 C-144.13 197.24 -144.14 196.36 -144.14 195.44 C-144.07 191.18 -143.85 188.76 -141.59 185.07 C-139.5 183.19 -139.5 183.19 -137.5 183.19 C-137.17 182.2 -136.84 181.21 -136.5 180.19 C-134.84 178.85 -133.17 177.52 -131.5 176.19 C-130.8 175.3 -130.1 174.41 -129.38 173.5 C-124.69 167.68 -118.16 161.03 -110.5 160.19 C-110.17 159.2 -109.84 158.21 -109.5 157.19 C-108.84 157.19 -108.18 157.19 -107.5 157.19 C-106.84 155.87 -106.18 154.55 -105.5 153.19 C-104.84 153.19 -104.18 153.19 -103.5 153.19 C-103.5 152.53 -103.5 151.87 -103.5 151.19 C-100.54 148.47 -98.35 147.12 -94.5 146.19 C-93.84 145.2 -93.18 144.21 -92.5 143.19 C-91.84 143.19 -91.18 143.19 -90.5 143.19 C-90.17 142.2 -89.84 141.21 -89.5 140.19 C-86.08 136.49 -82.71 133.5 -77.5 133.19 C-77.17 132.2 -76.84 131.21 -76.5 130.19 C-74.72 128.36 -74.72 128.36 -72.56 126.5 C-71.85 125.88 -71.14 125.25 -70.41 124.61 C-68.5 123.19 -68.5 123.19 -66.5 123.19 C-66.5 122.53 -66.5 121.87 -66.5 121.19 C-64.52 120.86 -62.54 120.53 -60.5 120.19 C-60 118.7 -60 118.7 -59.5 117.19 C-58.84 117.19 -58.18 117.19 -57.5 117.19 C-56.51 115.21 -56.51 115.21 -55.5 113.19 C-54.84 113.19 -54.18 113.19 -53.5 113.19 C-53 111.7 -53 111.7 -52.5 110.19 C-51.84 110.19 -51.18 110.19 -50.5 110.19 C-50 108.7 -50 108.7 -49.5 107.19 C-47.85 107.19 -46.2 107.19 -44.5 107.19 C-43.51 105.21 -43.51 105.21 -42.5 103.19 C-41.84 103.19 -41.18 103.19 -40.5 103.19 C-40 101.7 -40 101.7 -39.5 100.19 C-38.84 100.19 -38.18 100.19 -37.5 100.19 C-37 98.7 -37 98.7 -36.5 97.19 C-34.54 95.4 -34.54 95.4 -32.12 93.56 C-31.33 92.95 -30.54 92.34 -29.73 91.71 C-27.5 90.19 -27.5 90.19 -24.5 89.19 C-23.16 87.53 -21.82 85.86 -20.5 84.19 C-15.96 80.19 -15.96 80.19 -13.5 80.19 C-13.5 79.53 -13.5 78.87 -13.5 78.19 C-10.53 77.69 -10.53 77.69 -7.5 77.19 C-7.17 76.2 -6.84 75.21 -6.5 74.19 C-5.84 74.19 -5.18 74.19 -4.5 74.19 C-3.51 72.21 -3.51 72.21 -2.5 70.19 C-1.84 70.19 -1.18 70.19 -0.5 70.19 C-0.17 69.2 0.16 68.21 0.5 67.19 C1.16 67.19 1.82 67.19 2.5 67.19 C1.57 61.41 1.57 61.41 -1.88 56.94 C-2.74 56.36 -3.61 55.78 -4.5 55.19 C-5.49 54.14 -5.49 54.14 -6.5 53.06 C-8.4 51.05 -8.4 51.05 -11 50.19 C-13.91 49.02 -15.34 47.42 -17.5 45.19 C-18.99 44.69 -18.99 44.69 -20.5 44.19 C-21.56 42.25 -21.56 42.25 -22.5 40.19 C-23.16 39.53 -23.82 38.87 -24.5 38.19 C-27.46 31.93 -28.4 26.11 -27.5 19.19 C-26.84 18.53 -26.18 17.87 -25.5 17.19 C-25.21 16.24 -24.92 15.29 -24.62 14.31 C-23.42 10.96 -22.24 9.41 -19.5 7.19 C-18.84 7.19 -18.18 7.19 -17.5 7.19 C-17.17 6.2 -16.84 5.21 -16.5 4.19 C-15.29 4 -15.29 4 -14.06 3.81 C-13.22 3.61 -12.37 3.4 -11.5 3.19 C-11.17 2.53 -10.84 1.87 -10.5 1.19 C-6.95 0 -3.7 0 0 0 Z M54.5 38.19 C55.16 38.85 55.82 39.51 56.5 40.19 C56.5 39.53 56.5 38.87 56.5 38.19 C55.84 38.19 55.18 38.19 54.5 38.19 Z " fill="#1661E4" transform="translate(435.5,290.8125)"/>
<path d="M0 0 C0.88 0.01 1.77 0.03 2.68 0.04 C4.85 0.08 7.02 0.13 9.19 0.19 C9.19 1.18 9.19 2.17 9.19 3.19 C10.84 3.19 12.49 3.19 14.19 3.19 C14.19 3.85 14.19 4.51 14.19 5.19 C14.85 5.19 15.51 5.19 16.19 5.19 C19.6 7.98 20.49 9.9 21.19 14.19 C22.18 14.68 22.18 14.68 23.19 15.19 C23.27 18.79 23.33 22.4 23.38 26 C23.4 27.02 23.43 28.05 23.45 29.1 C23.47 30.58 23.47 30.58 23.48 32.08 C23.5 33.44 23.5 33.44 23.53 34.83 C23.12 37.65 22.3 38.36 20.19 40.19 C19.47 42.29 19.47 42.29 19.19 44.19 C18.53 44.19 17.87 44.19 17.19 44.19 C16.86 45.18 16.53 46.17 16.19 47.19 C15.44 47.28 14.69 47.38 13.91 47.48 C10.81 48.29 9.76 49.18 7.59 51.5 C6.96 52.16 6.32 52.83 5.66 53.51 C4.68 54.56 4.68 54.56 3.69 55.62 C-3.42 63.21 -3.42 63.21 -8.81 65.19 C-11.2 67.44 -13.41 69.77 -15.62 72.2 C-18.84 75.61 -21.41 76.79 -25.81 78.19 C-28.35 80.21 -28.35 80.21 -30.56 82.62 C-31.32 83.41 -32.08 84.19 -32.86 85 C-34.94 87.23 -34.94 87.23 -36.81 90.19 C-39.94 90.38 -39.94 90.38 -42.81 90.19 C-43.07 90.77 -43.33 91.36 -43.59 91.96 C-44.92 94.38 -46.38 95.92 -48.38 97.81 C-50.95 100.23 -50.95 100.23 -52.81 103.19 C-53.67 103.4 -54.52 103.62 -55.41 103.84 C-60.19 105.73 -62.87 108.96 -66.31 112.69 C-70.65 117.37 -73.55 120.39 -79.81 122.19 C-82.38 124.24 -82.38 124.24 -84.62 126.69 C-85.39 127.48 -86.16 128.28 -86.96 129.09 C-88.85 131.05 -88.85 131.05 -89.81 133.19 C-91.79 133.19 -93.77 133.19 -95.81 133.19 C-96.05 133.75 -96.29 134.32 -96.54 134.9 C-98.07 137.65 -99.9 139.58 -102.12 141.81 C-102.88 142.59 -103.64 143.36 -104.43 144.16 C-106.81 146.19 -106.81 146.19 -109.28 147.15 C-112.63 148.52 -114.54 150.55 -117.06 153.12 C-117.93 154 -118.81 154.88 -119.7 155.78 C-121.99 158.08 -121.99 158.08 -122.81 161.19 C-121.52 163.23 -121.52 163.23 -119.62 165.19 C-119.01 165.87 -118.4 166.55 -117.77 167.25 C-115.16 169.83 -112.88 171.83 -109.38 173 C-105.79 174.66 -104.1 177.01 -101.81 180.19 C-101.06 182.5 -101.06 182.5 -100.81 184.19 C-100.48 184.52 -100.15 184.85 -99.81 185.19 C-98.7 192.96 -97.53 202.69 -101.94 209.44 C-104.46 211.61 -107.04 213.37 -109.81 215.19 C-110.22 215.91 -110.63 216.64 -111.05 217.38 C-113.23 219.61 -114.01 219.49 -117.05 219.61 C-118.74 219.6 -120.43 219.56 -122.12 219.5 C-122.97 219.49 -123.81 219.48 -124.68 219.47 C-129.12 219.39 -133.47 219.23 -137.81 218.19 C-138.94 216.38 -138.94 216.38 -139.81 214.19 C-142.17 211.31 -143.82 210.18 -147.31 208.75 C-151.19 207.02 -152.34 205.54 -154.81 202.19 C-158.34 198.67 -158.34 198.67 -162.82 196.76 C-165.41 196.02 -166.15 194.88 -167.75 192.75 C-170.23 189.66 -172.08 188.57 -175.81 187.19 C-175.96 186.57 -176.1 185.96 -176.25 185.32 C-176.95 182.66 -177.92 181.93 -180.06 180.25 C-180.69 179.73 -181.32 179.22 -181.97 178.69 C-182.88 177.94 -182.88 177.94 -183.81 177.19 C-188.06 173.43 -189.82 170.37 -191.81 165.19 C-192.14 164.86 -192.47 164.53 -192.81 164.19 C-192.98 162.19 -192.98 162.19 -193 159.75 C-193.01 158.95 -193.03 158.14 -193.04 157.32 C-192.81 155.19 -192.81 155.19 -190.81 153.19 C-190.52 152.24 -190.24 151.29 -189.94 150.31 C-188.73 146.96 -187.55 145.41 -184.81 143.19 C-184.15 143.19 -183.49 143.19 -182.81 143.19 C-182.81 141.54 -182.81 139.89 -182.81 138.19 C-180.17 136.73 -178.92 136.19 -175.81 136.19 C-175.48 135.2 -175.15 134.21 -174.81 133.19 C-174.15 133.19 -173.49 133.19 -172.81 133.19 C-172.48 132.2 -172.15 131.21 -171.81 130.19 C-171.15 130.19 -170.49 130.19 -169.81 130.19 C-169.48 129.2 -169.15 128.21 -168.81 127.19 C-165.49 124.04 -164.52 123.19 -159.81 123.19 C-159.32 121.7 -159.32 121.7 -158.81 120.19 C-156.88 118 -156.88 118 -154.81 116.19 C-154.15 116.19 -153.49 116.19 -152.81 116.19 C-152.32 114.7 -152.32 114.7 -151.81 113.19 C-148.39 109.49 -145.02 106.5 -139.81 106.19 C-139.32 104.7 -139.32 104.7 -138.81 103.19 C-136.48 100.96 -136.48 100.96 -133.56 98.56 C-132.61 97.77 -131.65 96.97 -130.67 96.15 C-127.89 94.24 -126.13 93.54 -122.81 93.19 C-122.32 91.7 -122.32 91.7 -121.81 90.19 C-121.15 90.19 -120.49 90.19 -119.81 90.19 C-119.32 88.7 -119.32 88.7 -118.81 87.19 C-116.88 85 -116.88 85 -114.81 83.19 C-114.15 83.19 -113.49 83.19 -112.81 83.19 C-112.32 81.7 -112.32 81.7 -111.81 80.19 C-109.15 78.19 -106.2 76.19 -102.81 76.19 C-102.32 74.7 -102.32 74.7 -101.81 73.19 C-101.15 73.19 -100.49 73.19 -99.81 73.19 C-99.32 71.7 -99.32 71.7 -98.81 70.19 C-96.85 68.4 -96.85 68.4 -94.44 66.56 C-93.65 65.95 -92.85 65.34 -92.04 64.71 C-89.81 63.19 -89.81 63.19 -86.81 62.19 C-85.47 60.53 -84.14 58.86 -82.81 57.19 C-78.27 53.19 -78.27 53.19 -75.81 53.19 C-75.48 52.2 -75.15 51.21 -74.81 50.19 C-73.16 50.19 -71.51 50.19 -69.81 50.19 C-69.48 49.2 -69.15 48.21 -68.81 47.19 C-68.15 47.19 -67.49 47.19 -66.81 47.19 C-66.15 45.87 -65.49 44.55 -64.81 43.19 C-64.15 43.19 -63.49 43.19 -62.81 43.19 C-62.48 42.2 -62.15 41.21 -61.81 40.19 C-61.15 40.19 -60.49 40.19 -59.81 40.19 C-59.48 39.2 -59.15 38.21 -58.81 37.19 C-53.56 33.19 -53.56 33.19 -49.81 33.19 C-49.48 32.2 -49.15 31.21 -48.81 30.19 C-48.15 30.19 -47.49 30.19 -46.81 30.19 C-46.48 29.2 -46.15 28.21 -45.81 27.19 C-40.56 23.19 -40.56 23.19 -36.81 23.19 C-36.48 22.2 -36.15 21.21 -35.81 20.19 C-34.21 18.57 -34.21 18.57 -32.19 16.88 C-28.99 14.18 -28.99 14.18 -25.87 11.4 C-25.27 10.85 -24.68 10.31 -24.06 9.75 C-23.27 9.01 -23.27 9.01 -22.45 8.25 C-20.81 7.19 -20.81 7.19 -16.81 7.19 C-16.59 6.59 -16.36 5.99 -16.12 5.38 C-12.41 -0.82 -6.41 -0.19 0 0 Z " fill="#1661E5" transform="translate(251.8125,194.8125)"/>
<path d="M0 0 C0.91 -0.01 1.82 -0.02 2.76 -0.03 C4.24 -0.03 4.24 -0.03 5.75 -0.03 C6.76 -0.03 7.77 -0.03 8.81 -0.04 C10.96 -0.04 13.1 -0.05 15.24 -0.04 C18.52 -0.04 21.8 -0.06 25.08 -0.09 C27.16 -0.09 29.24 -0.09 31.31 -0.09 C32.3 -0.1 33.28 -0.11 34.3 -0.12 C35.21 -0.11 36.12 -0.1 37.07 -0.1 C38.27 -0.1 38.27 -0.1 39.5 -0.1 C42.11 0.37 43.01 1.19 44.6 3.27 C44.6 3.93 44.6 4.59 44.6 5.27 C45.92 5.27 47.24 5.27 48.6 5.27 C49.09 8.24 49.09 8.24 49.6 11.27 C50.26 11.27 50.92 11.27 51.6 11.27 C51.89 12.41 52.18 13.54 52.47 14.71 C52.84 15.89 53.22 17.06 53.6 18.27 C54.26 18.6 54.92 18.93 55.6 19.27 C55.6 20.59 55.6 21.91 55.6 23.27 C56.59 23.6 57.58 23.93 58.6 24.27 C58.27 24.93 57.94 25.59 57.6 26.27 C58.59 27.26 58.59 27.26 59.6 28.27 C59.81 29.51 59.81 29.51 60.04 30.77 C60.37 33.62 60.37 33.62 63.6 35.27 C63.6 36.26 63.6 37.25 63.6 38.27 C64.26 38.27 64.92 38.27 65.6 38.27 C65.72 38.91 65.84 39.55 65.97 40.21 C66.13 41.03 66.3 41.86 66.47 42.71 C66.64 43.54 66.8 44.36 66.97 45.21 C67.28 46.23 67.28 46.23 67.6 47.27 C68.26 47.6 68.92 47.93 69.6 48.27 C69.7 49.04 69.8 49.8 69.91 50.59 C70.83 54.18 72.73 55.05 75.6 57.27 C76.29 59.46 76.29 59.46 76.6 61.27 C77.26 61.6 77.92 61.93 78.6 62.27 C79.22 65.34 79.22 65.34 79.6 68.27 C80.26 68.27 80.92 68.27 81.6 68.27 C81.89 69.39 82.18 70.5 82.47 71.65 C83.29 75.28 83.29 75.28 85.6 77.27 C86.22 79.4 86.22 79.4 86.6 81.27 C87.26 81.27 87.92 81.27 88.6 81.27 C89.09 84.74 89.09 84.74 89.6 88.27 C90.26 87.94 90.92 87.61 91.6 87.27 C91.68 88.39 91.76 89.5 91.85 90.65 C92.22 92.44 92.22 92.44 92.6 94.27 C94.58 95.26 94.58 95.26 96.6 96.27 C96.6 66.24 96.6 36.21 96.6 5.27 C97.92 4.61 99.24 3.95 100.6 3.27 C100.6 2.61 100.6 1.95 100.6 1.27 C103.4 -0.12 105.72 0.14 108.85 0.14 C110.1 0.14 111.34 0.14 112.63 0.14 C113.94 0.14 115.25 0.15 116.6 0.15 C117.91 0.15 119.22 0.14 120.57 0.14 C122.44 0.14 122.44 0.14 124.35 0.14 C125.5 0.14 126.65 0.14 127.83 0.15 C130.6 0.27 130.6 0.27 132.6 1.27 C132.6 50.11 132.6 98.95 132.6 149.27 C115.77 149.27 98.94 149.27 81.6 149.27 C79.95 147.62 78.3 145.97 76.6 144.27 C76.6 143.28 76.6 142.29 76.6 141.27 C75.94 140.94 75.28 140.61 74.6 140.27 C73.92 138.61 73.25 136.95 72.6 135.27 C71.94 134.61 71.28 133.95 70.6 133.27 C69.84 131.82 69.14 130.34 68.47 128.84 C68.12 128.05 67.77 127.27 67.4 126.47 C66.6 124.27 66.6 124.27 66.6 121.27 C65.94 120.94 65.28 120.61 64.6 120.27 C63.58 117.95 62.58 115.61 61.6 113.27 C60.94 112.61 60.28 111.95 59.6 111.27 C59.6 110.28 59.6 109.29 59.6 108.27 C58.11 107.78 58.11 107.78 56.6 107.27 C56.47 106.49 56.35 105.71 56.22 104.9 C55.81 102.13 55.81 102.13 53.6 100.27 C53.47 97.65 53.47 97.65 53.6 95.27 C52.61 94.78 52.61 94.78 51.6 94.27 C48.24 90.72 47.05 88.14 46.6 83.27 C45.94 83.27 45.28 83.27 44.6 83.27 C42.96 80 41.32 76.72 39.7 73.43 C39.02 72.07 38.34 70.7 37.66 69.34 C37.16 68.32 37.16 68.32 36.65 67.28 C36.31 66.61 35.98 65.94 35.63 65.25 C35.19 64.35 35.19 64.35 34.74 63.44 C33.11 60.34 31.34 57.32 29.6 54.27 C29.27 85.95 28.94 117.63 28.6 150.27 C27.94 149.94 27.28 149.61 26.6 149.27 C24.11 149.26 21.66 149.3 19.18 149.4 C18.45 149.42 17.72 149.44 16.97 149.47 C14.64 149.54 12.31 149.63 9.97 149.71 C8.39 149.77 6.81 149.82 5.23 149.87 C1.35 150 -2.52 150.14 -6.4 150.27 C-6.45 131.01 -6.48 111.75 -6.51 92.49 C-6.52 83.54 -6.53 74.6 -6.55 65.66 C-6.57 57.87 -6.59 50.07 -6.59 42.28 C-6.59 38.15 -6.6 34.02 -6.61 29.9 C-6.63 26.01 -6.63 22.13 -6.63 18.25 C-6.63 16.82 -6.63 15.39 -6.64 13.96 C-6.65 12.02 -6.65 10.08 -6.64 8.13 C-6.64 7.04 -6.65 5.95 -6.65 4.83 C-6.21 0.28 -4.04 0.02 0 0 Z " fill="#1661E5" transform="translate(710.402099609375,284.725341796875)"/>
<path d="M0 0 C0.7 -0 1.39 -0 2.11 -0 C3.57 0 5.04 0.01 6.5 0.03 C8.74 0.05 10.98 0.05 13.22 0.04 C24.19 0.08 24.19 0.08 28.75 2.36 C29.08 31.07 29.41 59.78 29.75 89.36 C32.72 89.69 35.69 90.02 38.75 90.36 C40.73 91.35 42.71 92.34 44.75 93.36 C44.42 101.94 44.09 110.52 43.75 119.36 C42.26 119.86 42.26 119.86 40.75 120.36 C40.25 121.85 40.25 121.85 39.75 123.36 C38.97 123.42 38.19 123.48 37.38 123.55 C36.37 123.63 35.36 123.71 34.31 123.8 C33.3 123.88 32.29 123.96 31.25 124.05 C28.81 124.1 28.81 124.1 27.75 125.36 C27.59 127.14 27.5 128.93 27.43 130.71 C27.4 131.68 27.36 132.66 27.32 133.66 C27.28 134.9 27.23 136.14 27.19 137.43 C27.04 141.37 26.9 145.3 26.75 149.36 C13.55 149.36 0.35 149.36 -13.25 149.36 C-13.75 136.99 -13.75 136.99 -14.25 124.36 C-18.03 124.33 -21.81 124.29 -25.7 124.25 C-29.36 124.2 -33.02 124.15 -36.67 124.1 C-39.22 124.07 -41.76 124.04 -44.3 124.02 C-47.96 123.98 -51.61 123.93 -55.27 123.88 C-56.4 123.87 -57.54 123.86 -58.72 123.86 C-59.78 123.84 -60.84 123.82 -61.93 123.8 C-62.86 123.78 -63.8 123.77 -64.76 123.76 C-67.7 123.29 -69.08 122.37 -71.25 120.36 C-72.63 117.6 -72.36 115.35 -72.35 112.26 C-72.34 111.05 -72.34 109.84 -72.34 108.59 C-72.33 107.32 -72.32 106.05 -72.31 104.74 C-72.31 103.46 -72.3 102.18 -72.3 100.86 C-72.29 97.7 -72.27 94.53 -72.25 91.36 C-70.76 90.87 -70.76 90.87 -69.25 90.36 C-68.52 88.35 -68.52 88.35 -68.25 86.36 C-67.59 86.36 -66.93 86.36 -66.25 86.36 C-66.17 85.64 -66.09 84.92 -66 84.18 C-65.09 80.77 -63.65 78.91 -61.25 76.36 C-60.59 76.36 -59.93 76.36 -59.25 76.36 C-59.19 75.66 -59.13 74.96 -59.06 74.24 C-57.99 70.45 -55.78 68.33 -53.25 65.36 C-53.09 64.68 -52.92 64 -52.75 63.3 C-51.94 60.17 -49.54 58.54 -47.25 56.36 C-46.59 55.37 -45.93 54.38 -45.25 53.36 C-44.59 53.36 -43.93 53.36 -43.25 53.36 C-43.17 52.46 -43.09 51.55 -43 50.61 C-42.15 46.94 -41.17 45.66 -38.25 43.36 C-37.59 43.36 -36.93 43.36 -36.25 43.36 C-35.92 41.38 -35.59 39.4 -35.25 37.36 C-34.59 37.36 -33.93 37.36 -33.25 37.36 C-32.59 36.04 -31.93 34.72 -31.25 33.36 C-30.59 33.36 -29.93 33.36 -29.25 33.36 C-29.25 31.71 -29.25 30.06 -29.25 28.36 C-28.26 28.03 -27.27 27.7 -26.25 27.36 C-25.52 25.35 -25.52 25.35 -25.25 23.36 C-24.59 23.36 -23.93 23.36 -23.25 23.36 C-23.17 22.64 -23.09 21.92 -23 21.18 C-22.09 17.77 -20.65 15.91 -18.25 13.36 C-17.59 13.36 -16.93 13.36 -16.25 13.36 C-16.17 12.64 -16.09 11.92 -16 11.18 C-13.8 2.91 -7.96 -0.02 0 0 Z M-16.25 62.36 C-16.7 63.29 -17.16 64.22 -17.62 65.18 C-19.22 68.3 -20.8 69.92 -23.25 72.36 C-24.27 74.36 -25.27 76.35 -26.25 78.36 C-27.25 79.36 -28.25 80.36 -29.25 81.36 C-29.97 83.01 -30.64 84.67 -31.25 86.36 C-31.58 87.02 -31.91 87.68 -32.25 88.36 C-31.92 89.02 -31.59 89.68 -31.25 90.36 C-25.31 90.36 -19.37 90.36 -13.25 90.36 C-13.25 80.79 -13.25 71.22 -13.25 61.36 C-14.47 61.29 -14.47 61.29 -16.25 62.36 Z " fill="#1661E4" transform="translate(640.25,284.63671875)"/>
<path d="M0 0 C1.64 -0.02 3.29 -0.06 4.93 -0.1 C7.3 -0.17 9.68 -0.2 12.05 -0.22 C13.15 -0.26 13.15 -0.26 14.26 -0.3 C18.47 -0.28 20.77 0.47 23.74 3.32 C26.23 6.41 26.23 6.41 26.23 8.41 C27.01 8.53 27.79 8.65 28.6 8.78 C31.23 10.41 31.23 10.41 31.93 12.69 C32.25 14.49 32.53 16.29 32.77 18.09 C33.04 20.59 33.04 20.59 35.23 22.41 C35.93 24.05 36.6 25.72 37.23 27.41 C38.22 27.41 39.21 27.41 40.23 27.41 C40.72 28.4 40.72 28.4 41.23 29.41 C43.25 30.06 43.25 30.06 45.23 30.41 C45.41 28.95 45.41 28.95 45.6 27.47 C45.81 26.46 46.01 25.45 46.23 24.41 C47.22 23.91 47.22 23.91 48.23 23.41 C48.94 21.76 49.6 20.09 50.23 18.41 C51.94 14.55 51.94 14.55 54.23 13.41 C54.56 12.42 54.89 11.43 55.23 10.41 C55.56 9.42 55.89 8.43 56.23 7.41 C56.89 7.08 57.55 6.75 58.23 6.41 C58.39 5.58 58.56 4.76 58.73 3.91 C58.89 3.08 59.06 2.26 59.23 1.41 C62.54 -0.25 66.24 0.24 69.88 0.24 C70.74 0.23 71.6 0.23 72.48 0.23 C74.3 0.22 76.11 0.22 77.93 0.22 C80.71 0.22 83.5 0.2 86.28 0.18 C88.05 0.18 89.81 0.18 91.57 0.17 C92.41 0.17 93.24 0.16 94.1 0.15 C100 0.18 100 0.18 102.23 2.41 C102.66 5.72 102.66 5.72 102.23 9.41 C99.85 12.34 99.85 12.34 97.23 14.41 C96.57 14.41 95.91 14.41 95.23 14.41 C95.31 15.31 95.39 16.22 95.48 17.16 C95.23 20.41 95.23 20.41 93.35 22.78 C91.23 24.41 91.23 24.41 89.23 24.41 C88.9 26.39 88.57 28.37 88.23 30.41 C87.57 30.41 86.91 30.41 86.23 30.41 C85.57 31.73 84.91 33.05 84.23 34.41 C83.57 34.41 82.91 34.41 82.23 34.41 C82.29 35.35 82.35 36.3 82.41 37.28 C82.32 38.83 82.32 38.83 82.23 40.41 C81.24 41.07 80.25 41.73 79.23 42.41 C79.04 43.55 79.04 43.55 78.85 44.72 C78.23 47.41 78.23 47.41 75.79 49.66 C72.41 53.28 71.93 56.61 71.23 61.41 C72.71 62.4 72.71 62.4 74.23 63.41 C75.39 65.85 76.23 67.69 76.23 70.41 C76.89 70.74 77.55 71.07 78.23 71.41 C78.63 72.8 78.63 72.8 79.04 74.22 C80.45 78 82.06 79.01 85.23 81.41 C86.26 83.05 87.27 84.71 88.23 86.41 C88.89 86.74 89.55 87.07 90.23 87.41 C90.56 89.07 90.89 90.74 91.23 92.41 C91.89 92.74 92.55 93.07 93.23 93.41 C92.9 94.07 92.57 94.73 92.23 95.41 C92.91 95.96 92.91 95.96 93.6 96.53 C95.71 98.96 96.29 101.35 97.23 104.41 C97.86 105.75 98.52 107.09 99.23 108.41 C100.22 108.41 101.21 108.41 102.23 108.41 C104.23 110.41 104.23 110.41 105.23 116.41 C90.38 116.41 75.53 116.41 60.23 116.41 C59.57 114.43 58.91 112.45 58.23 110.41 C57.25 109.38 56.25 108.38 55.23 107.41 C52.23 102.07 52.23 102.07 52.23 98.41 C51.57 98.08 50.91 97.75 50.23 97.41 C44.67 91.44 44.67 91.44 44.23 86.41 C43.57 86.41 42.91 86.41 42.23 86.41 C41.57 87.07 40.91 87.73 40.23 88.41 C39.57 89.07 38.91 89.73 38.23 90.41 C37.57 90.41 36.91 90.41 36.23 90.41 C35.79 91.95 35.79 91.95 35.35 93.53 C34.98 94.82 34.6 96.11 34.23 97.41 C33.92 98.48 33.61 99.55 33.29 100.66 C32.23 103.4 31.29 104.43 29.23 106.41 C29.08 107.03 28.94 107.65 28.79 108.29 C27.79 112.04 25.43 114.31 22.23 116.41 C19.02 117.19 15.96 117.11 12.67 116.99 C11.77 116.98 10.87 116.97 9.94 116.97 C7.07 116.93 4.21 116.86 1.35 116.78 C-0.6 116.75 -2.55 116.72 -4.49 116.7 C-9.26 116.63 -14.01 116.53 -18.77 116.41 C-19.43 115.09 -20.09 113.77 -20.77 112.41 C-20.36 111.96 -19.96 111.51 -19.53 111.05 C-16.52 107.67 -14.11 104.83 -12.77 100.41 C-12.11 100.41 -11.45 100.41 -10.77 100.41 C-10.77 99.42 -10.77 98.43 -10.77 97.41 C-9.78 96.91 -9.78 96.91 -8.77 96.41 C-8.51 95.48 -8.24 94.55 -7.96 93.59 C-6.55 89.81 -4.87 88.88 -1.77 86.41 C-0.43 83.28 -0.43 83.28 0.23 80.41 C0.89 80.41 1.55 80.41 2.23 80.41 C2.56 78.43 2.89 76.45 3.23 74.41 C3.89 74.41 4.55 74.41 5.23 74.41 C5.35 73.77 5.47 73.13 5.6 72.47 C5.81 71.79 6.01 71.11 6.23 70.41 C7.22 69.91 7.22 69.91 8.23 69.41 C8.93 67.75 9.59 66.09 10.23 64.41 C10.56 64.08 10.89 63.75 11.23 63.41 C11.81 58 11.71 53.8 8.23 49.41 C7.69 48.93 7.15 48.46 6.6 47.97 C4.58 45.68 4.55 43.37 4.23 40.41 C3.57 40.41 2.91 40.41 2.23 40.41 C2.23 39.75 2.23 39.09 2.23 38.41 C1.57 38.08 0.91 37.75 0.23 37.41 C-0.27 34.91 -0.27 34.91 -0.77 32.41 C-1.43 32.08 -2.09 31.75 -2.77 31.41 C-3.44 30.07 -4.11 28.74 -4.77 27.41 C-5.25 26.95 -5.73 26.5 -6.23 26.03 C-7.99 24.18 -8.67 22.59 -9.59 20.22 C-11.03 16.74 -12.68 14.11 -15.09 11.22 C-17.37 8.35 -17.77 7.8 -17.77 3.97 C-15.47 -1.94 -5.53 0.05 0 0 Z M88.23 88.41 C89.23 92.41 89.23 92.41 89.23 92.41 Z " fill="#1661E3" transform="translate(1000.77490234375,317.594970703125)"/>
<path d="M0 0 C1.03 -0 2.07 -0 3.13 -0.01 C6.54 -0.01 9.95 0.02 13.36 0.04 C15.73 0.05 18.09 0.05 20.46 0.05 C25.42 0.06 30.37 0.08 35.33 0.11 C41.7 0.15 48.06 0.17 54.43 0.18 C60.49 0.19 66.55 0.21 72.61 0.23 C74.35 0.24 74.35 0.24 76.13 0.24 C79.41 0.25 82.68 0.27 85.95 0.29 C87.42 0.3 87.42 0.3 88.92 0.3 C89.81 0.31 90.69 0.32 91.61 0.32 C92.77 0.33 92.77 0.33 93.95 0.34 C95.72 0.47 95.72 0.47 96.72 1.47 C96.81 3.85 96.83 6.19 96.82 8.57 C96.81 9.28 96.81 9.99 96.81 10.72 C96.81 12.99 96.79 15.26 96.78 17.53 C96.78 19.07 96.77 20.61 96.77 22.14 C96.76 25.92 96.74 29.69 96.72 33.47 C95.18 33.51 95.18 33.51 93.61 33.55 C89.82 33.64 86.03 33.74 82.25 33.84 C80.6 33.89 78.96 33.93 77.32 33.97 C74.96 34.02 72.61 34.09 70.25 34.15 C69.51 34.17 68.78 34.19 68.01 34.2 C64.57 34.01 64.57 34.01 61.72 35.47 C61.61 36.95 61.57 38.43 61.56 39.92 C61.55 40.88 61.54 41.84 61.53 42.83 C61.52 43.89 61.52 44.95 61.51 46.05 C61.5 47.16 61.49 48.27 61.48 49.42 C61.45 53.11 61.43 56.81 61.4 60.51 C61.38 63.06 61.36 65.61 61.34 68.17 C61.29 74.22 61.24 80.27 61.2 86.32 C61.15 93.2 61.1 100.09 61.04 106.97 C60.93 121.14 60.82 135.3 60.72 149.47 C55.18 149.49 49.65 149.51 44.11 149.52 C42.23 149.53 40.34 149.54 38.46 149.55 C35.75 149.56 33.05 149.56 30.35 149.57 C29.5 149.57 28.65 149.58 27.78 149.58 C25.76 149.58 23.74 149.53 21.72 149.47 C20.72 148.47 20.72 148.47 20.59 146.58 C20.6 145.75 20.6 144.92 20.6 144.06 C20.6 143.11 20.59 142.16 20.59 141.17 C20.6 139.59 20.6 139.59 20.6 137.98 C20.6 136.88 20.6 135.78 20.6 134.64 C20.6 130.98 20.61 127.32 20.62 123.65 C20.62 121.12 20.62 118.59 20.62 116.06 C20.63 110.06 20.64 104.07 20.65 98.07 C20.66 91.25 20.66 84.42 20.67 77.6 C20.68 63.55 20.7 49.51 20.72 35.47 C9.17 35.47 -2.38 35.47 -14.28 35.47 C-15.74 29.66 -15.59 23.94 -15.66 17.97 C-15.69 16.73 -15.73 15.5 -15.77 14.22 C-15.79 12.44 -15.79 12.44 -15.81 10.63 C-15.83 9.54 -15.85 8.46 -15.87 7.34 C-15.28 4.47 -15.28 4.47 -13.39 2.32 C-8.92 -0.34 -5.11 -0.07 0 0 Z " fill="#1662E6" transform="translate(879.2822265625,284.530029296875)"/>
<path d="M0 0 C0.33 0 0.66 0 1 0 C1 48.84 1 97.68 1 148 C0.67 148 0.34 148 0 148 C0 99.16 0 50.32 0 0 Z " fill="#000002" transform="translate(844,287)"/>
<path d="M0 0 C0.33 0 0.66 0 1 0 C1 37.95 1 75.9 1 115 C0.67 115 0.34 115 0 115 C0 77.05 0 39.1 0 0 Z " fill="#000002" transform="translate(941,320)"/>
<path d="M0 0 C0.99 0.99 1.98 1.98 3 3 C2.34 3.66 1.68 4.32 1 5 C0.78 8.04 0.69 11 0.68 14.04 C0.67 14.98 0.66 15.91 0.65 16.88 C0.62 19.98 0.6 23.09 0.59 26.2 C0.57 28.34 0.55 30.49 0.53 32.64 C0.48 38.31 0.44 43.97 0.4 49.64 C0.36 55.42 0.31 61.19 0.26 66.97 C0.16 78.32 0.08 89.66 0 101 C-0.33 101 -0.66 101 -1 101 C-1.02 87.98 -1.04 74.96 -1.05 61.94 C-1.06 55.89 -1.06 49.85 -1.08 43.8 C-1.09 37.97 -1.09 32.14 -1.09 26.31 C-1.1 24.08 -1.1 21.85 -1.11 19.63 C-1.11 16.51 -1.11 13.4 -1.11 10.29 C-1.12 9.36 -1.12 8.43 -1.12 7.47 C-1.11 1.11 -1.11 1.11 0 0 Z " fill="#000002" transform="translate(739,334)"/>
<path d="M0 0 C0.66 0.33 1.32 0.66 2 1 C-6.25 9.25 -14.5 17.5 -23 26 C-23 22.48 -22.3 21.56 -20 19 C-19.34 19 -18.68 19 -18 19 C-17.67 18.01 -17.34 17.02 -17 16 C-15.34 14.66 -13.67 13.33 -12 12 C-10.79 10.54 -9.59 9.08 -8.4 7.59 C-5.89 4.74 -2.94 2.39 0 0 Z " fill="#0A2E6D" transform="translate(316,455)"/>
<path d="M0 0 C17.49 0 34.98 0 53 0 C53 0.33 53 0.66 53 1 C35.51 1 18.02 1 0 1 C0 0.67 0 0.34 0 0 Z " fill="#000002" transform="translate(791,435)"/>
<path d="M0 0 C15.18 0 30.36 0 46 0 C46 0.33 46 0.66 46 1 C30.82 1 15.64 1 0 1 C0 0.67 0 0.34 0 0 Z " fill="#000002" transform="translate(1061,435)"/>
<path d="M0 0 C14.19 0 28.38 0 43 0 C43 0.33 43 0.66 43 1 C28.81 1 14.62 1 0 1 C0 0.67 0 0.34 0 0 Z " fill="#000002" transform="translate(981,435)"/>
<path d="M0 0 C13.2 0 26.4 0 40 0 C40 0.33 40 0.66 40 1 C26.8 1 13.6 1 0 1 C0 0.67 0 0.34 0 0 Z " fill="#000002" transform="translate(901,435)"/>
<path d="M0 0 C13.2 0 26.4 0 40 0 C40 0.33 40 0.66 40 1 C26.8 1 13.6 1 0 1 C0 0.67 0 0.34 0 0 Z " fill="#000002" transform="translate(628,435)"/>
<path d="M0 0 C0.66 0.33 1.32 0.66 2 1 C-0.07 3.2 -2.15 5.39 -4.25 7.56 C-5.13 8.51 -5.13 8.51 -6.03 9.47 C-6.6 10.06 -7.17 10.65 -7.77 11.25 C-8.29 11.8 -8.81 12.35 -9.35 12.92 C-11 14 -11 14 -13.2 13.67 C-13.8 13.45 -14.39 13.23 -15 13 C-14.01 13 -13.02 13 -12 13 C-11.67 12.01 -11.34 11.02 -11 10 C-9.26 8.28 -9.26 8.28 -7.12 6.5 C-4.65 4.41 -2.26 2.33 0 0 Z " fill="#0A2C68" transform="translate(227,205)"/>
<path d="M0 0 C11.55 0 23.1 0 35 0 C35 0.33 35 0.66 35 1 C23.45 1 11.9 1 0 1 C0 0.67 0 0.34 0 0 Z " fill="#000002" transform="translate(942,319)"/>
<path d="M0 0 C10.89 0 21.78 0 33 0 C33 0.33 33 0.66 33 1 C22.11 1 11.22 1 0 1 C0 0.67 0 0.34 0 0 Z " fill="#000002" transform="translate(705,435)"/>
<path d="M0 0 C0.33 0 0.66 0 1 0 C1 10.56 1 21.12 1 32 C0.67 32 0.34 32 0 32 C0 21.44 0 10.88 0 0 Z " fill="#000002" transform="translate(977,287)"/>
<path d="M0 0 C4 1 4 1 4 1 Z M-5 4 C-4.34 4.33 -3.68 4.66 -3 5 C-5.97 7.97 -8.94 10.94 -12 14 C-12.99 13.67 -13.98 13.34 -15 13 C-14.34 13 -13.68 13 -13 13 C-12.67 12.01 -12.34 11.02 -12 10 C-10.37 8.39 -10.37 8.39 -8.44 6.81 C-7.8 6.28 -7.16 5.75 -6.5 5.21 C-6 4.81 -5.51 4.41 -5 4 Z " fill="#092962" transform="translate(125,288)"/>
<path d="M0 0 C0.33 0 0.66 0 1 0 C1 8.25 1 16.5 1 25 C0.67 25 0.34 25 0 25 C0 16.75 0 8.5 0 0 Z " fill="#000002" transform="translate(668,410)"/>
<path d="M0 0 C0.33 0 0.66 0 1 0 C1 8.25 1 16.5 1 25 C0.67 25 0.34 25 0 25 C0 16.75 0 8.5 0 0 Z " fill="#000002" transform="translate(685,380)"/>
<path d="M0 0 C0.33 0 0.66 0 1 0 C1 7.26 1 14.52 1 22 C0.67 22 0.34 22 0 22 C0 14.74 0 7.48 0 0 Z " fill="#000002" transform="translate(276,210)"/>
<path d="M0 0 C6.93 0 13.86 0 21 0 C21 0.33 21 0.66 21 1 C14.07 1 7.14 1 0 1 C0 0.67 0 0.34 0 0 Z " fill="#000002" transform="translate(307,515)"/>
<path d="M0 0 C0.33 0 0.66 0 1 0 C1 6.6 1 13.2 1 20 C0.67 20 0.34 20 0 20 C0 13.4 0 6.8 0 0 Z " fill="#000002" transform="translate(153,380)"/>
<path d="M0 0 C6.27 0 12.54 0 19 0 C19 0.33 19 0.66 19 1 C12.73 1 6.46 1 0 1 C0 0.67 0 0.34 0 0 Z " fill="#000002" transform="translate(120,415)"/>
<path d="M0 0 C0.33 0 0.66 0 1 0 C1 4.62 1 9.24 1 14 C0.67 14 0.34 14 0 14 C0 9.38 0 4.76 0 0 Z " fill="#000002" transform="translate(369,214)"/>
<path d="M0 0 C0.66 0.33 1.32 0.66 2 1 C1.67 1.33 1.34 1.66 1 2 C0.63 4.33 0.3 6.66 0 9 C-0.33 9 -0.66 9 -1 9 C-1.1 2.85 -1.1 2.85 -1 1 C-0.67 0.67 -0.34 0.34 0 0 Z " fill="#000002" transform="translate(260,475)"/>
<path d="M0 0 C0.99 0.5 0.99 0.5 2 1 C2 3.97 2 6.94 2 10 C1.67 10 1.34 10 1 10 C0.67 6.7 0.34 3.4 0 0 Z " fill="#000002" transform="translate(508,350)"/>
<path d="M0 0 C1.1 3.29 0.8 4.71 0 8 C-0.33 8 -0.66 8 -1 8 C-1.04 5.67 -1.04 3.33 -1 1 C-0.67 0.67 -0.34 0.34 0 0 Z " fill="#000002" transform="translate(313,353)"/>
<path d="M0 0 C2.62 -0.19 2.62 -0.19 5 0 C4.04 0.43 4.04 0.43 3.06 0.88 C0.85 1.83 0.85 1.83 0 4 C-0.66 3.67 -1.32 3.34 -2 3 C-1.34 2.01 -0.68 1.02 0 0 Z " fill="#000002" transform="translate(227,272)"/>
<path d="M0 0 C1.32 0.33 2.64 0.66 4 1 C3.01 1.33 2.02 1.66 1 2 C0.67 2.66 0.34 3.32 0 4 C-0.66 3.67 -1.32 3.34 -2 3 C-1.34 2.01 -0.68 1.02 0 0 Z " fill="#000002" transform="translate(423,435)"/>
<path d="M0 0 C2.64 0 5.28 0 8 0 C8 0.33 8 0.66 8 1 C5.36 1 2.72 1 0 1 C0 0.67 0 0.34 0 0 Z " fill="#000002" transform="translate(237,502)"/>
<path d="M0 0 C0.33 0 0.66 0 1 0 C1 2.64 1 5.28 1 8 C0.67 8 0.34 8 0 8 C0 5.36 0 2.72 0 0 Z " fill="#000002" transform="translate(269,453)"/>
<path d="M0 0 C0.33 0 0.66 0 1 0 C1 1.65 1 3.3 1 5 C0.34 4.67 -0.32 4.34 -1 4 C-0.67 2.68 -0.34 1.36 0 0 Z " fill="#000002" transform="translate(303,376)"/>
<path d="M0 0 C0.66 0.33 1.32 0.66 2 1 C1.34 2.65 0.68 4.3 0 6 C-0.33 6 -0.66 6 -1 6 C-1.04 4.33 -1.04 2.67 -1 1 C-0.67 0.67 -0.34 0.34 0 0 Z " fill="#000002" transform="translate(1081,359)"/>
<path d="M0 0 C0.33 0 0.66 0 1 0 C1 2.64 1 5.28 1 8 C0.67 8 0.34 8 0 8 C0 5.36 0 2.72 0 0 Z " fill="#000002" transform="translate(332,307)"/>
<path d="M0 0 C0.33 0 0.66 0 1 0 C1 2.64 1 5.28 1 8 C0.67 8 0.34 8 0 8 C0 5.36 0 2.72 0 0 Z " fill="#000002" transform="translate(342,284)"/>
<path d="M0 0 C0.33 0 0.66 0 1 0 C1 1.98 1 3.96 1 6 C-0.06 4.12 -0.06 4.12 -1 2 C-0.67 1.34 -0.34 0.68 0 0 Z " fill="#000002" transform="translate(356,253)"/>
<path d="M0 0 C0.33 0 0.66 0 1 0 C1 1.65 1 3.3 1 5 C0.34 4.67 -0.32 4.34 -1 4 C-0.67 2.68 -0.34 1.36 0 0 Z " fill="#000002" transform="translate(366,230)"/>
<path d="M0 0 C1.98 0.5 1.98 0.5 4 1 C2.35 1.66 0.7 2.32 -1 3 C-0.67 2.01 -0.34 1.02 0 0 Z " fill="#000002" transform="translate(407,448)"/>
<path d="M0 0 C0.33 1.32 0.66 2.64 1 4 C0.34 4 -0.32 4 -1 4 C-0.67 2.68 -0.34 1.36 0 0 Z " fill="#000002" transform="translate(283,423)"/>
<path d="M0 0 C0.33 1.32 0.66 2.64 1 4 C0.34 4 -0.32 4 -1 4 C-0.67 2.68 -0.34 1.36 0 0 Z " fill="#000002" transform="translate(293,400)"/>
<path d="M0 0 C0.33 0 0.66 0 1 0 C1 2.31 1 4.62 1 7 C0.67 7 0.34 7 0 7 C0 4.69 0 2.38 0 0 Z " fill="#000002" transform="translate(322,331)"/>
<path d="M0 0 C0.33 0.66 0.66 1.32 1 2 C0.06 4.12 0.06 4.12 -1 6 C-1.04 4.33 -1.04 2.67 -1 1 C-0.67 0.67 -0.34 0.34 0 0 Z " fill="#000002" transform="translate(363,239)"/>
<path d="M0 0 C1.98 0.5 1.98 0.5 4 1 C2.35 1.33 0.7 1.66 -1 2 C-0.67 1.34 -0.34 0.68 0 0 Z " fill="#000002" transform="translate(444,418)"/>
<path d="M0 0 C0.99 1.49 0.99 1.49 2 3 C1.67 3.66 1.34 4.32 1 5 C0.67 3.35 0.34 1.7 0 0 Z " fill="#000002" transform="translate(1080,390)"/>
<path d="M0 0 C0.33 0 0.66 0 1 0 C1 1.65 1 3.3 1 5 C0.34 4.67 -0.32 4.34 -1 4 C-0.67 2.68 -0.34 1.36 0 0 Z " fill="#000002" transform="translate(1090,344)"/>
<path d="M0 0 C1.65 0 3.3 0 5 0 C5 0.33 5 0.66 5 1 C3.35 1 1.7 1 0 1 C0 0.67 0 0.34 0 0 Z " fill="#000002" transform="translate(357,488)"/>
<path d="M0 0 C0.33 0 0.66 0 1 0 C1 1.65 1 3.3 1 5 C0.67 5 0.34 5 0 5 C0 3.35 0 1.7 0 0 Z " fill="#000002" transform="translate(256,486)"/>
<path d="M0 0 C0.33 0 0.66 0 1 0 C1 1.65 1 3.3 1 5 C0.67 5 0.34 5 0 5 C0 3.35 0 1.7 0 0 Z " fill="#000002" transform="translate(263,469)"/>
<path d="M0 0 C0.33 0 0.66 0 1 0 C1 1.65 1 3.3 1 5 C0.67 5 0.34 5 0 5 C0 3.35 0 1.7 0 0 Z " fill="#000002" transform="translate(279,433)"/>
<path d="M0 0 C0.33 0 0.66 0 1 0 C1 1.65 1 3.3 1 5 C0.67 5 0.34 5 0 5 C0 3.35 0 1.7 0 0 Z " fill="#000002" transform="translate(1097,416)"/>
<path d="M0 0 C0.33 0 0.66 0 1 0 C1 1.65 1 3.3 1 5 C0.67 5 0.34 5 0 5 C0 3.35 0 1.7 0 0 Z " fill="#000002" transform="translate(286,416)"/>
<path d="M0 0 C0.33 0 0.66 0 1 0 C1 1.65 1 3.3 1 5 C0.67 5 0.34 5 0 5 C0 3.35 0 1.7 0 0 Z " fill="#000002" transform="translate(1037,410)"/>
<path d="M0 0 C0.33 0 0.66 0 1 0 C1 1.65 1 3.3 1 5 C0.67 5 0.34 5 0 5 C0 3.35 0 1.7 0 0 Z " fill="#000002" transform="translate(289,410)"/>
<path d="M0 0 C0 0.99 0 1.98 0 3 C-0.66 2.67 -1.32 2.34 -2 2 C-1.34 1.34 -0.68 0.68 0 0 Z " fill="#000002" transform="translate(143,410)"/>
<path d="M0 0 C0.33 0 0.66 0 1 0 C1 1.65 1 3.3 1 5 C0.67 5 0.34 5 0 5 C0 3.35 0 1.7 0 0 Z " fill="#000002" transform="translate(296,393)"/>
<path d="M0 0 C0.33 0 0.66 0 1 0 C1 1.65 1 3.3 1 5 C0.67 5 0.34 5 0 5 C0 3.35 0 1.7 0 0 Z " fill="#000002" transform="translate(309,363)"/>
<path d="M0 0 C0.33 0 0.66 0 1 0 C1 1.65 1 3.3 1 5 C0.67 5 0.34 5 0 5 C0 3.35 0 1.7 0 0 Z " fill="#000002" transform="translate(1084,353)"/>
<path d="M0 0 C0.33 0 0.66 0 1 0 C1 1.65 1 3.3 1 5 C0.67 5 0.34 5 0 5 C0 3.35 0 1.7 0 0 Z " fill="#000002" transform="translate(316,346)"/>
<path d="M0 0 C0.33 0 0.66 0 1 0 C1 1.65 1 3.3 1 5 C0.67 5 0.34 5 0 5 C0 3.35 0 1.7 0 0 Z " fill="#000002" transform="translate(319,340)"/>
<path d="M0 0 C0.33 0 0.66 0 1 0 C1 1.65 1 3.3 1 5 C0.67 5 0.34 5 0 5 C0 3.35 0 1.7 0 0 Z " fill="#000002" transform="translate(1037,339)"/>
<path d="M0 0 C0.33 0 0.66 0 1 0 C1 1.65 1 3.3 1 5 C0.67 5 0.34 5 0 5 C0 3.35 0 1.7 0 0 Z " fill="#000002" transform="translate(1097,333)"/>
<path d="M0 0 C0.33 0 0.66 0 1 0 C1 1.65 1 3.3 1 5 C0.67 5 0.34 5 0 5 C0 3.35 0 1.7 0 0 Z " fill="#000002" transform="translate(1034,333)"/>
<path d="M0 0 C0.33 0 0.66 0 1 0 C1 1.65 1 3.3 1 5 C0.67 5 0.34 5 0 5 C0 3.35 0 1.7 0 0 Z " fill="#000002" transform="translate(781,333)"/>
<path d="M0 0 C0.33 0 0.66 0 1 0 C1 1.65 1 3.3 1 5 C0.67 5 0.34 5 0 5 C0 3.35 0 1.7 0 0 Z " fill="#000002" transform="translate(326,323)"/>
<path d="M0 0 C0.99 0.33 1.98 0.66 3 1 C2.67 1.66 2.34 2.32 2 3 C1.34 2.01 0.68 1.02 0 0 Z " fill="#000002" transform="translate(1025,321)"/>
<path d="M0 0 C0.33 0 0.66 0 1 0 C1 1.65 1 3.3 1 5 C0.67 5 0.34 5 0 5 C0 3.35 0 1.7 0 0 Z " fill="#000002" transform="translate(329,317)"/>
<path d="M0 0 C0.33 0 0.66 0 1 0 C1 1.65 1 3.3 1 5 C0.67 5 0.34 5 0 5 C0 3.35 0 1.7 0 0 Z " fill="#000002" transform="translate(336,300)"/>
<path d="M0 0 C0.33 0 0.66 0 1 0 C1 1.65 1 3.3 1 5 C0.67 5 0.34 5 0 5 C0 3.35 0 1.7 0 0 Z " fill="#000002" transform="translate(339,293)"/>
<path d="M0 0 C0.33 0 0.66 0 1 0 C1 1.65 1 3.3 1 5 C0.67 5 0.34 5 0 5 C0 3.35 0 1.7 0 0 Z " fill="#000002" transform="translate(349,270)"/>
<path d="M0 0 C0.33 0 0.66 0 1 0 C1 1.65 1 3.3 1 5 C0.67 5 0.34 5 0 5 C0 3.35 0 1.7 0 0 Z " fill="#000002" transform="translate(359,247)"/>
<path d="M0 0 C4 1 4 1 4 1 Z " fill="#000002" transform="translate(337,505)"/>
<path d="M0 0 C0.99 0.5 0.99 0.5 2 1 C1.67 1.66 1.34 2.32 1 3 C0.67 2.01 0.34 1.02 0 0 Z " fill="#000002" transform="translate(295,503)"/>
<path d="M0 0 C4 1 4 1 4 1 Z " fill="#000002" transform="translate(374,475)"/>
<path d="M0 0 C1 4 1 4 1 4 Z " fill="#000002" transform="translate(266,463)"/>
<path d="M0 0 C0 3 0 3 0 3 Z " fill="#000002" transform="translate(389,463)"/>
<path d="M0 0 C1 4 1 4 1 4 Z " fill="#000002" transform="translate(273,446)"/>
<path d="M0 0 C1 4 1 4 1 4 Z " fill="#000002" transform="translate(276,440)"/>
<path d="M0 0 C0 3 0 3 0 3 Z " fill="#000002" transform="translate(1031,422)"/>
<path d="M0 0 C1 4 1 4 1 4 Z " fill="#000002" transform="translate(1034,416)"/>
<path d="M0 0 C4 1 4 1 4 1 Z " fill="#000002" transform="translate(460,405)"/>
<path d="M0 0 C4 1 4 1 4 1 Z " fill="#000002" transform="translate(104,405)"/>
<path d="M0 0 C4 1 4 1 4 1 Z " fill="#000002" transform="translate(477,392)"/>
<path d="M0 0 C1 4 1 4 1 4 Z " fill="#000002" transform="translate(299,387)"/>
<path d="M0 0 C1 4 1 4 1 4 Z " fill="#000002" transform="translate(1074,370)"/>
<path d="M0 0 C1 4 1 4 1 4 Z " fill="#000002" transform="translate(502,370)"/>
<path d="M0 0 C1 4 1 4 1 4 Z " fill="#000002" transform="translate(306,370)"/>
<path d="M0 0 C4 1 4 1 4 1 Z " fill="#000002" transform="translate(141,342)"/>
<path d="M0 0 C1 4 1 4 1 4 Z " fill="#000002" transform="translate(778,328)"/>
<path d="M0 0 C4 1 4 1 4 1 Z " fill="#000002" transform="translate(157,329)"/>
<path d="M0 0 C1 4 1 4 1 4 Z " fill="#000002" transform="translate(1104,322)"/>
<path d="M0 0 C1 4 1 4 1 4 Z " fill="#000002" transform="translate(771,314)"/>
<path d="M0 0 C4 1 4 1 4 1 Z " fill="#000002" transform="translate(194,299)"/>
<path d="M0 0 C1 4 1 4 1 4 Z " fill="#000002" transform="translate(346,277)"/>
<path d="M0 0 C1 4 1 4 1 4 Z " fill="#000002" transform="translate(352,264)"/>
<path d="M0 0 C4 1 4 1 4 1 Z " fill="#000002" transform="translate(244,259)"/>
<path d="M0 0 C0 3 0 3 0 3 Z " fill="#000002" transform="translate(264,242)"/>
<path d="M0 0 C3 1 3 1 3 1 Z " fill="#000002" transform="translate(222,502)"/>
<path d="M0 0 C0.33 0.66 0.66 1.32 1 2 C0.34 1.67 -0.32 1.34 -1 1 C-0.67 0.67 -0.34 0.34 0 0 Z " fill="#000002" transform="translate(249,497)"/>
<path d="M0 0 C0.33 0.66 0.66 1.32 1 2 C0.34 1.67 -0.32 1.34 -1 1 C-0.67 0.67 -0.34 0.34 0 0 Z " fill="#000002" transform="translate(252,494)"/>
<path d="M0 0 C0.33 0.66 0.66 1.32 1 2 C0.34 1.67 -0.32 1.34 -1 1 C-0.67 0.67 -0.34 0.34 0 0 Z " fill="#000002" transform="translate(372,477)"/>
<path d="M0 0 C3 1 3 1 3 1 Z " fill="#000002" transform="translate(390,462)"/>
<path d="" fill="#000002" transform="translate(0,0)"/>
<path d="M0 0 C0.66 0.66 1.32 1.32 2 2 C1.34 2 0.68 2 0 2 C0 1.34 0 0.68 0 0 Z " fill="#000002" transform="translate(109,407)"/>
<path d="M0 0 C0.33 0.66 0.66 1.32 1 2 C0.34 1.67 -0.32 1.34 -1 1 C-0.67 0.67 -0.34 0.34 0 0 Z " fill="#000002" transform="translate(146,407)"/>
<path d="M0 0 C0.33 0.66 0.66 1.32 1 2 C0.34 1.67 -0.32 1.34 -1 1 C-0.67 0.67 -0.34 0.34 0 0 Z " fill="#000002" transform="translate(149,404)"/>
<path d="M0 0 C0.33 0.66 0.66 1.32 1 2 C0.34 1.67 -0.32 1.34 -1 1 C-0.67 0.67 -0.34 0.34 0 0 Z " fill="#000002" transform="translate(475,394)"/>
<path d="M0 0 C3 1 3 1 3 1 Z " fill="#000002" transform="translate(88,392)"/>
<path d="M0 0 C3 1 3 1 3 1 Z " fill="#000002" transform="translate(493,379)"/>
<path d="M0 0 C0.66 0.66 1.32 1.32 2 2 C1.34 2 0.68 2 0 2 C0 1.34 0 0.68 0 0 Z " fill="#000002" transform="translate(69,374)"/>
<path d="M0 0 C0.66 0.66 1.32 1.32 2 2 C1.34 2 0.68 2 0 2 C0 1.34 0 0.68 0 0 Z " fill="#000002" transform="translate(66,371)"/>
<path d="M0 0 C0.33 0.66 0.66 1.32 1 2 C0.34 1.67 -0.32 1.34 -1 1 C-0.67 0.67 -0.34 0.34 0 0 Z " fill="#000002" transform="translate(1077,367)"/>
<path d="M0 0 C3 1 3 1 3 1 Z " fill="#000002" transform="translate(424,342)"/>
<path d="M0 0 C0.33 0.66 0.66 1.32 1 2 C0.34 1.67 -0.32 1.34 -1 1 C-0.67 0.67 -0.34 0.34 0 0 Z " fill="#000002" transform="translate(1093,341)"/>
<path d="M0 0 C0.66 0.66 1.32 1.32 2 2 C1.34 2 0.68 2 0 2 C0 1.34 0 0.68 0 0 Z " fill="#000002" transform="translate(987,331)"/>
<path d="M0 0 C0.66 0 1.32 0 2 0 C1.67 0.66 1.34 1.32 1 2 C0.67 1.34 0.34 0.68 0 0 Z " fill="#000002" transform="translate(484,322)"/>
<path d="M0 0 C0.33 0.66 0.66 1.32 1 2 C0.34 1.67 -0.32 1.34 -1 1 C-0.67 0.67 -0.34 0.34 0 0 Z " fill="#000002" transform="translate(172,318)"/>
<path d="M0 0 C0.66 0 1.32 0 2 0 C1.67 0.66 1.34 1.32 1 2 C0.67 1.34 0.34 0.68 0 0 Z " fill="#000002" transform="translate(474,315)"/>
<path d="M0 0 C3 1 3 1 3 1 Z " fill="#000002" transform="translate(210,286)"/>
<path d="M0 0 C0.33 0.66 0.66 1.32 1 2 C0.34 1.67 -0.32 1.34 -1 1 C-0.67 0.67 -0.34 0.34 0 0 Z " fill="#000002" transform="translate(222,278)"/>
<path d="M0 0 C0.33 0.66 0.66 1.32 1 2 C0.34 1.67 -0.32 1.34 -1 1 C-0.67 0.67 -0.34 0.34 0 0 Z " fill="#000002" transform="translate(273,233)"/>
<path d="M0 0 C0.66 0 1.32 0 2 0 C1.67 0.66 1.34 1.32 1 2 C0.67 1.34 0.34 0.68 0 0 Z " fill="#000002" transform="translate(272,207)"/>
<path d="" fill="#000002" transform="translate(0,0)"/>
<path d="" fill="#000002" transform="translate(0,0)"/>
<path d="M0 0 C2 1 2 1 2 1 Z " fill="#000002" transform="translate(264,468)"/>
<path d="M0 0 C2 1 2 1 2 1 Z " fill="#000002" transform="translate(270,452)"/>
<path d="" fill="#000002" transform="translate(0,0)"/>
<path d="" fill="#000002" transform="translate(0,0)"/>
<path d="M0 0 C2 1 2 1 2 1 Z " fill="#000002" transform="translate(1025,432)"/>
<path d="M0 0 C2 1 2 1 2 1 Z " fill="#000002" transform="translate(1105,431)"/>
<path d="" fill="#000002" transform="translate(0,0)"/>
<path d="M0 0 C2 1 2 1 2 1 Z " fill="#000002" transform="translate(1057,428)"/>
<path d="" fill="#000002" transform="translate(0,0)"/>
<path d="M0 0 C2 1 2 1 2 1 Z " fill="#000002" transform="translate(1098,421)"/>
<path d="" fill="#000002" transform="translate(0,0)"/>
<path d="M0 0 C2 1 2 1 2 1 Z " fill="#000002" transform="translate(1035,415)"/>
<path d="M0 0 C2 1 2 1 2 1 Z " fill="#000002" transform="translate(287,415)"/>
<path d="M0 0 C2 1 2 1 2 1 Z " fill="#000002" transform="translate(1039,408)"/>
<path d="" fill="#000002" transform="translate(0,0)"/>
<path d="M0 0 C2 1 2 1 2 1 Z " fill="#000002" transform="translate(683,405)"/>
<path d="" fill="#000002" transform="translate(0,0)"/>
<path d="" fill="#000002" transform="translate(0,0)"/>
<path d="" fill="#000002" transform="translate(0,0)"/>
<path d="M0 0 C2 1 2 1 2 1 Z " fill="#000002" transform="translate(151,378)"/>
<path d="M0 0 C2 1 2 1 2 1 Z " fill="#000002" transform="translate(304,375)"/>
<path d="" fill="#000002" transform="translate(0,0)"/>
<path d="M0 0 C2 1 2 1 2 1 Z " fill="#000002" transform="translate(503,369)"/>
<path d="" fill="#000002" transform="translate(0,0)"/>
<path d="" fill="#000002" transform="translate(0,0)"/>
<path d="M0 0 C2 1 2 1 2 1 Z " fill="#000002" transform="translate(1085,352)"/>
<path d="" fill="#000002" transform="translate(0,0)"/>
<path d="M0 0 C2 1 2 1 2 1 Z " fill="#000002" transform="translate(317,345)"/>
<path d="" fill="#000002" transform="translate(0,0)"/>
<path d="M0 0 C2 1 2 1 2 1 Z " fill="#000002" transform="translate(1035,338)"/>
<path d="M0 0 C2 1 2 1 2 1 Z " fill="#000002" transform="translate(1098,332)"/>
<path d="" fill="#000002" transform="translate(0,0)"/>
<path d="M0 0 C2 1 2 1 2 1 Z " fill="#000002" transform="translate(327,322)"/>
<path d="M0 0 C2 1 2 1 2 1 Z " fill="#000002" transform="translate(174,316)"/>
<path d="M0 0 C2 1 2 1 2 1 Z " fill="#000002" transform="translate(334,305)"/>
<path d="" fill="#000002" transform="translate(0,0)"/>
<path d="M0 0 C2 1 2 1 2 1 Z " fill="#000002" transform="translate(453,298)"/>
<path d="" fill="#000002" transform="translate(0,0)"/>
<path d="M0 0 C2 1 2 1 2 1 Z " fill="#000002" transform="translate(340,292)"/>
<path d="" fill="#000002" transform="translate(0,0)"/>
<path d="M0 0 C2 1 2 1 2 1 Z " fill="#000002" transform="translate(344,282)"/>
<path d="" fill="#000002" transform="translate(0,0)"/>
<path d="M0 0 C2 1 2 1 2 1 Z " fill="#000002" transform="translate(357,252)"/>
<path d="" fill="#000002" transform="translate(0,0)"/>
<path d="" fill="#000002" transform="translate(0,0)"/>
<path d="" fill="#000002" transform="translate(0,0)"/>
<path d="" fill="#000002" transform="translate(0,0)"/>
<path d="" fill="#000002" transform="translate(0,0)"/>
<path d="" fill="#000002" transform="translate(0,0)"/>
<path d="" fill="#000002" transform="translate(0,0)"/>
<path d="" fill="#000002" transform="translate(0,0)"/>
<path d="" fill="#000002" transform="translate(0,0)"/>
<path d="" fill="#000002" transform="translate(0,0)"/>
<path d="" fill="#000002" transform="translate(0,0)"/>
<path d="" fill="#000002" transform="translate(0,0)"/>
<path d="" fill="#000002" transform="translate(0,0)"/>
<path d="" fill="#000002" transform="translate(0,0)"/>
<path d="" fill="#000002" transform="translate(0,0)"/>
<path d="" fill="#000002" transform="translate(0,0)"/>
<path d="" fill="#000002" transform="translate(0,0)"/>
<path d="" fill="#000002" transform="translate(0,0)"/>
<path d="" fill="#000002" transform="translate(0,0)"/>
<path d="" fill="#000002" transform="translate(0,0)"/>
<path d="" fill="#000002" transform="translate(0,0)"/>
<path d="" fill="#000002" transform="translate(0,0)"/>
<path d="" fill="#000002" transform="translate(0,0)"/>
<path d="" fill="#000002" transform="translate(0,0)"/>
<path d="" fill="#000002" transform="translate(0,0)"/>
<path d="" fill="#000002" transform="translate(0,0)"/>
<path d="" fill="#000002" transform="translate(0,0)"/>
<path d="" fill="#000002" transform="translate(0,0)"/>
<path d="" fill="#000002" transform="translate(0,0)"/>
<path d="" fill="#000002" transform="translate(0,0)"/>
<path d="" fill="#000002" transform="translate(0,0)"/>
<path d="" fill="#000002" transform="translate(0,0)"/>
<path d="" fill="#000002" transform="translate(0,0)"/>
<path d="" fill="#000002" transform="translate(0,0)"/>
<path d="" fill="#000002" transform="translate(0,0)"/>
<path d="" fill="#000002" transform="translate(0,0)"/>
<path d="" fill="#000002" transform="translate(0,0)"/>
<path d="" fill="#000002" transform="translate(0,0)"/>
<path d="" fill="#000002" transform="translate(0,0)"/>
<path d="" fill="#000002" transform="translate(0,0)"/>
<path d="" fill="#000002" transform="translate(0,0)"/>
<path d="" fill="#000002" transform="translate(0,0)"/>
<path d="" fill="#000002" transform="translate(0,0)"/>
<path d="" fill="#000002" transform="translate(0,0)"/>
<path d="" fill="#000002" transform="translate(0,0)"/>
<path d="" fill="#000002" transform="translate(0,0)"/>
<path d="" fill="#000002" transform="translate(0,0)"/>
<path d="" fill="#000002" transform="translate(0,0)"/>
<path d="" fill="#000002" transform="translate(0,0)"/>
<path d="" fill="#000002" transform="translate(0,0)"/>
<path d="" fill="#000002" transform="translate(0,0)"/>
<path d="" fill="#000002" transform="translate(0,0)"/>
<path d="" fill="#000002" transform="translate(0,0)"/>
<path d="" fill="#000002" transform="translate(0,0)"/>
<path d="" fill="#000002" transform="translate(0,0)"/>
<path d="" fill="#000002" transform="translate(0,0)"/>
<path d="" fill="#000002" transform="translate(0,0)"/>
<path d="" fill="#000002" transform="translate(0,0)"/>
<path d="" fill="#000002" transform="translate(0,0)"/>
<path d="" fill="#000002" transform="translate(0,0)"/>
<path d="" fill="#000002" transform="translate(0,0)"/>
<path d="" fill="#000002" transform="translate(0,0)"/>
<path d="" fill="#000002" transform="translate(0,0)"/>
<path d="" fill="#000002" transform="translate(0,0)"/>
<path d="" fill="#000002" transform="translate(0,0)"/>
<path d="" fill="#000002" transform="translate(0,0)"/>
<path d="" fill="#000002" transform="translate(0,0)"/>
<path d="" fill="#000002" transform="translate(0,0)"/>
<path d="" fill="#000002" transform="translate(0,0)"/>
<path d="" fill="#000002" transform="translate(0,0)"/>
<path d="" fill="#000002" transform="translate(0,0)"/>
<path d="" fill="#000002" transform="translate(0,0)"/>
<path d="" fill="#000002" transform="translate(0,0)"/>
<path d="" fill="#000002" transform="translate(0,0)"/>
<path d="" fill="#000002" transform="translate(0,0)"/>
<path d="" fill="#000002" transform="translate(0,0)"/>
<path d="" fill="#000002" transform="translate(0,0)"/>
<path d="" fill="#000002" transform="translate(0,0)"/>
<path d="" fill="#000002" transform="translate(0,0)"/>
<path d="" fill="#000002" transform="translate(0,0)"/>
<path d="" fill="#000002" transform="translate(0,0)"/>
<path d="" fill="#000002" transform="translate(0,0)"/>
<path d="" fill="#000002" transform="translate(0,0)"/>
<path d="" fill="#000002" transform="translate(0,0)"/>
<path d="" fill="#000002" transform="translate(0,0)"/>
<path d="" fill="#000002" transform="translate(0,0)"/>
<path d="" fill="#000002" transform="translate(0,0)"/>
<path d="" fill="#000002" transform="translate(0,0)"/>
<path d="" fill="#000002" transform="translate(0,0)"/>
<path d="" fill="#000002" transform="translate(0,0)"/>
<path d="" fill="#000002" transform="translate(0,0)"/>
<path d="" fill="#000002" transform="translate(0,0)"/>
<path d="" fill="#000002" transform="translate(0,0)"/>
<path d="" fill="#000002" transform="translate(0,0)"/>
<path d="" fill="#000002" transform="translate(0,0)"/>
<path d="" fill="#000002" transform="translate(0,0)"/>
<path d="" fill="#000002" transform="translate(0,0)"/>
<path d="" fill="#000002" transform="translate(0,0)"/>
<path d="" fill="#000002" transform="translate(0,0)"/>
<path d="" fill="#000002" transform="translate(0,0)"/>
<path d="" fill="#000002" transform="translate(0,0)"/>
<path d="" fill="#000002" transform="translate(0,0)"/>
<path d="" fill="#000002" transform="translate(0,0)"/>
<path d="" fill="#000002" transform="translate(0,0)"/>
<path d="" fill="#000002" transform="translate(0,0)"/>
<path d="" fill="#000002" transform="translate(0,0)"/>
<path d="" fill="#000002" transform="translate(0,0)"/>
<path d="" fill="#000002" transform="translate(0,0)"/>
<path d="" fill="#000002" transform="translate(0,0)"/>
<path d="" fill="#000002" transform="translate(0,0)"/>
<path d="" fill="#000002" transform="translate(0,0)"/>
<path d="" fill="#000002" transform="translate(0,0)"/>
<path d="" fill="#000002" transform="translate(0,0)"/>
<path d="" fill="#000002" transform="translate(0,0)"/>
<path d="" fill="#000002" transform="translate(0,0)"/>
<path d="" fill="#000002" transform="translate(0,0)"/>
<path d="" fill="#000002" transform="translate(0,0)"/>
<path d="" fill="#000002" transform="translate(0,0)"/>
<path d="" fill="#000002" transform="translate(0,0)"/>
<path d="" fill="#000002" transform="translate(0,0)"/>
<path d="" fill="#000002" transform="translate(0,0)"/>
<path d="" fill="#000002" transform="translate(0,0)"/>
<path d="" fill="#000002" transform="translate(0,0)"/>
<path d="" fill="#000002" transform="translate(0,0)"/>
<path d="" fill="#000002" transform="translate(0,0)"/>
<path d="" fill="#000002" transform="translate(0,0)"/>
<path d="" fill="#000002" transform="translate(0,0)"/>
<path d="" fill="#000002" transform="translate(0,0)"/>
<path d="" fill="#000002" transform="translate(0,0)"/>
<path d="" fill="#000002" transform="translate(0,0)"/>
<path d="" fill="#000002" transform="translate(0,0)"/>
<path d="" fill="#000002" transform="translate(0,0)"/>
<path d="" fill="#000002" transform="translate(0,0)"/>
<path d="" fill="#000002" transform="translate(0,0)"/>
<path d="" fill="#000002" transform="translate(0,0)"/>
<path d="" fill="#000002" transform="translate(0,0)"/>
<path d="" fill="#000002" transform="translate(0,0)"/>
<path d="" fill="#000002" transform="translate(0,0)"/>
<path d="" fill="#000002" transform="translate(0,0)"/>
<path d="" fill="#000002" transform="translate(0,0)"/>
<path d="" fill="#000002" transform="translate(0,0)"/>
<path d="" fill="#000002" transform="translate(0,0)"/>
<path d="" fill="#000002" transform="translate(0,0)"/>
<path d="" fill="#000002" transform="translate(0,0)"/>
<path d="" fill="#000002" transform="translate(0,0)"/>
<path d="" fill="#000002" transform="translate(0,0)"/>
<path d="" fill="#000002" transform="translate(0,0)"/>
<path d="" fill="#000002" transform="translate(0,0)"/>
<path d="" fill="#1763E8" transform="translate(0,0)"/>
<path d="" fill="#000002" transform="translate(0,0)"/>
<path d="" fill="#000002" transform="translate(0,0)"/>
<path d="" fill="#000002" transform="translate(0,0)"/>
<path d="" fill="#000002" transform="translate(0,0)"/>
<path d="" fill="#000002" transform="translate(0,0)"/>
<path d="" fill="#000002" transform="translate(0,0)"/>
<path d="" fill="#000002" transform="translate(0,0)"/>
<path d="" fill="#000002" transform="translate(0,0)"/>
<path d="" fill="#000002" transform="translate(0,0)"/>
<path d="" fill="#000002" transform="translate(0,0)"/>
<path d="" fill="#000002" transform="translate(0,0)"/>
<path d="" fill="#000002" transform="translate(0,0)"/>
<path d="" fill="#000002" transform="translate(0,0)"/>
<path d="" fill="#000002" transform="translate(0,0)"/>
<path d="" fill="#000002" transform="translate(0,0)"/>
<path d="" fill="#000002" transform="translate(0,0)"/>
<path d="" fill="#000002" transform="translate(0,0)"/>
<path d="" fill="#000002" transform="translate(0,0)"/>
<path d="" fill="#000002" transform="translate(0,0)"/>
<path d="" fill="#000002" transform="translate(0,0)"/>
<path d="" fill="#000002" transform="translate(0,0)"/>
<path d="" fill="#000002" transform="translate(0,0)"/>
<path d="" fill="#000002" transform="translate(0,0)"/>
<path d="" fill="#000002" transform="translate(0,0)"/>
<path d="" fill="#000002" transform="translate(0,0)"/>
<path d="" fill="#000002" transform="translate(0,0)"/>
<path d="" fill="#000002" transform="translate(0,0)"/>
<path d="" fill="#000002" transform="translate(0,0)"/>
<path d="" fill="#000002" transform="translate(0,0)"/>
<path d="" fill="#000002" transform="translate(0,0)"/>
<path d="" fill="#000002" transform="translate(0,0)"/>
<path d="" fill="#000002" transform="translate(0,0)"/>
<path d="" fill="#000002" transform="translate(0,0)"/>
<path d="" fill="#000002" transform="translate(0,0)"/>
<path d="" fill="#000002" transform="translate(0,0)"/>
<path d="" fill="#000002" transform="translate(0,0)"/>
<path d="" fill="#000002" transform="translate(0,0)"/>
<path d="" fill="#000002" transform="translate(0,0)"/>
<path d="" fill="#000002" transform="translate(0,0)"/>
<path d="" fill="#000002" transform="translate(0,0)"/>
<path d="" fill="#000002" transform="translate(0,0)"/>
<path d="" fill="#000002" transform="translate(0,0)"/>
<path d="" fill="#000002" transform="translate(0,0)"/>
<path d="" fill="#000002" transform="translate(0,0)"/>
<path d="" fill="#000002" transform="translate(0,0)"/>
<path d="" fill="#000002" transform="translate(0,0)"/>
<path d="" fill="#000002" transform="translate(0,0)"/>
<path d="" fill="#000002" transform="translate(0,0)"/>
<path d="" fill="#000002" transform="translate(0,0)"/>
<path d="" fill="#000002" transform="translate(0,0)"/>
<path d="" fill="#000002" transform="translate(0,0)"/>
<path d="" fill="#000002" transform="translate(0,0)"/>
<path d="" fill="#000002" transform="translate(0,0)"/>
<path d="" fill="#000002" transform="translate(0,0)"/>
<path d="" fill="#000002" transform="translate(0,0)"/>
<path d="" fill="#000002" transform="translate(0,0)"/>
<path d="" fill="#000002" transform="translate(0,0)"/>
<path d="" fill="#000002" transform="translate(0,0)"/>
<path d="" fill="#000002" transform="translate(0,0)"/>
<path d="" fill="#000002" transform="translate(0,0)"/>
<path d="" fill="#000002" transform="translate(0,0)"/>
<path d="" fill="#000002" transform="translate(0,0)"/>
<path d="" fill="#000002" transform="translate(0,0)"/>
<path d="" fill="#000002" transform="translate(0,0)"/>
<path d="" fill="#000002" transform="translate(0,0)"/>
<path d="" fill="#000002" transform="translate(0,0)"/>
<path d="" fill="#000002" transform="translate(0,0)"/>
<path d="" fill="#000002" transform="translate(0,0)"/>
<path d="" fill="#000002" transform="translate(0,0)"/>
<path d="" fill="#000002" transform="translate(0,0)"/>
<path d="" fill="#000002" transform="translate(0,0)"/>
<path d="" fill="#000002" transform="translate(0,0)"/>
<path d="" fill="#000002" transform="translate(0,0)"/>
<path d="" fill="#000002" transform="translate(0,0)"/>
<path d="" fill="#000002" transform="translate(0,0)"/>
<path d="" fill="#000002" transform="translate(0,0)"/>
<path d="" fill="#000002" transform="translate(0,0)"/>
<path d="" fill="#000002" transform="translate(0,0)"/>
<path d="" fill="#000002" transform="translate(0,0)"/>
<path d="" fill="#000002" transform="translate(0,0)"/>
<path d="" fill="#000002" transform="translate(0,0)"/>
<path d="" fill="#000002" transform="translate(0,0)"/>
<path d="" fill="#000002" transform="translate(0,0)"/>
<path d="" fill="#000002" transform="translate(0,0)"/>
<path d="" fill="#000002" transform="translate(0,0)"/>
<path d="" fill="#000002" transform="translate(0,0)"/>
<path d="" fill="#000002" transform="translate(0,0)"/>
<path d="" fill="#000002" transform="translate(0,0)"/>
<path d="" fill="#000002" transform="translate(0,0)"/>
<path d="" fill="#000002" transform="translate(0,0)"/>
<path d="" fill="#000002" transform="translate(0,0)"/>
<path d="" fill="#000002" transform="translate(0,0)"/>
<path d="" fill="#000002" transform="translate(0,0)"/>
<path d="" fill="#000002" transform="translate(0,0)"/>
<path d="" fill="#000002" transform="translate(0,0)"/>
<path d="" fill="#000002" transform="translate(0,0)"/>
<path d="" fill="#000002" transform="translate(0,0)"/>
<path d="" fill="#000002" transform="translate(0,0)"/>
<path d="" fill="#000002" transform="translate(0,0)"/>
<path d="" fill="#000002" transform="translate(0,0)"/>
<path d="" fill="#000002" transform="translate(0,0)"/>
<path d="" fill="#000002" transform="translate(0,0)"/>
<path d="" fill="#000002" transform="translate(0,0)"/>
<path d="" fill="#000002" transform="translate(0,0)"/>
<path d="" fill="#000002" transform="translate(0,0)"/>
<path d="" fill="#000002" transform="translate(0,0)"/>
<path d="" fill="#000002" transform="translate(0,0)"/>
<path d="" fill="#000002" transform="translate(0,0)"/>
<path d="" fill="#000002" transform="translate(0,0)"/>
<path d="" fill="#000002" transform="translate(0,0)"/>
<path d="" fill="#000002" transform="translate(0,0)"/>
</svg>
